<?xml version="1.0" standalone="no"?>
<!DOCTYPE svg PUBLIC "-//W3C//DTD SVG 20010904//EN"
 "http://www.w3.org/TR/2001/REC-SVG-20010904/DTD/svg10.dtd">
<svg version="1.0" xmlns="http://www.w3.org/2000/svg"
 width="700.000000pt" height="700.000000pt" viewBox="0 0 700.000000 700.000000"
 preserveAspectRatio="xMidYMid meet">
<metadata>
Created by potrace 1.11, written by Peter Selinger 2001-2013
</metadata>
<g transform="translate(0.000000,700.000000) scale(0.100000,-0.100000)"
fill="#000000" stroke="none">
<path d="M0 6849 l0 -151 1595 -1595 c877 -878 1595 -1599 1595 -1603 0 -4
-718 -725 -1595 -1603 l-1595 -1595 0 -151 0 -151 151 0 151 0 1599 1599 1599
1599 1599 -1600 1599 -1599 149 3 148 3 3 148 3 149 -1599 1599 -1600 1599
1599 1599 1599 1599 0 151 0 151 -151 0 -151 0 -1595 -1595 c-878 -877 -1599
-1595 -1603 -1595 -4 0 -725 718 -1603 1595 l-1595 1595 -151 0 -151 0 0 -151z"/>
</g>
</svg>
