<svg version="1.1" viewBox="0 0 880.672 119.156" enable-background="new 0 0 880.672 119.156"
	 xml:space="preserve">
<g data-id="Syn_By_Design">
	<g data-id="Design">
		<path d="M444.978,28.069c4.366,3.2,7.6,7.45,9.7,12.75c2.1,5.3,3.15,11.117,3.15,17.45c0,6.6-1.05,12.534-3.15,17.8
			c-2.1,5.268-5.317,9.45-9.65,12.55c-4.334,3.1-9.734,4.65-16.2,4.65h-26c-0.534,0-1-0.2-1.4-0.6s-0.6-0.866-0.6-1.4v-66
			c0-0.533,0.2-1,0.6-1.4s0.866-0.6,1.4-0.6h26C435.228,23.269,440.611,24.869,444.978,28.069z M447.228,80.719
			c4.266-5.7,6.4-13.183,6.4-22.45c0-5.666-0.917-10.85-2.75-15.55c-1.834-4.7-4.667-8.45-8.5-11.25c-3.834-2.8-8.684-4.2-14.55-4.2
			h-22.8v62h22.8C436.494,89.269,442.961,86.419,447.228,80.719z"/>
		<path d="M543.927,89.869c0.399,0.4,0.601,0.867,0.601,1.4c0,0.6-0.201,1.084-0.601,1.45c-0.399,0.367-0.867,0.55-1.399,0.55
			h-37.701c-0.533,0-1-0.2-1.399-0.6s-0.601-0.866-0.601-1.4v-66c0-0.533,0.201-1,0.601-1.4s0.866-0.6,1.399-0.6h37.701
			c0.532,0,1,0.2,1.399,0.6s0.601,0.867,0.601,1.4c0,0.6-0.201,1.084-0.601,1.45c-0.399,0.367-0.867,0.55-1.399,0.55h-35.5v27.9h31
			c0.532,0,1,0.2,1.399,0.6s0.601,0.867,0.601,1.4c0,0.6-0.201,1.084-0.601,1.45c-0.399,0.367-0.867,0.55-1.399,0.55h-31v30.1h35.5
			C543.06,89.269,543.527,89.469,543.927,89.869z"/>
		<path d="M594.525,91.719c-3.667-1.7-7.3-4.35-10.9-7.95c-0.399-0.4-0.6-0.9-0.6-1.5c0-0.533,0.232-1.05,0.7-1.55
			c0.466-0.5,0.966-0.75,1.5-0.75c0.6,0,1.165,0.3,1.7,0.9c2.6,3.067,5.683,5.4,9.25,7c3.565,1.6,7.315,2.4,11.25,2.4
			c5.133,0,9.365-1.233,12.699-3.7c3.333-2.465,5-5.732,5-9.8c-0.066-3.2-0.934-5.833-2.6-7.9c-1.667-2.066-3.717-3.716-6.15-4.95
			c-2.434-1.233-5.75-2.616-9.949-4.15c-4.601-1.733-8.185-3.266-10.75-4.6c-2.567-1.333-4.768-3.233-6.601-5.7
			c-1.834-2.466-2.75-5.7-2.75-9.7c0-3.266,0.9-6.233,2.7-8.9c1.8-2.666,4.365-4.766,7.7-6.3c3.333-1.533,7.2-2.3,11.6-2.3
			c3.933,0,7.666,0.717,11.2,2.15c3.533,1.435,6.333,3.45,8.4,6.05c0.665,0.934,1,1.634,1,2.1c0,0.535-0.25,1.018-0.75,1.45
			c-0.5,0.435-1.051,0.65-1.65,0.65c-0.534,0-0.967-0.2-1.3-0.6c-1.867-2.4-4.268-4.3-7.2-5.7c-2.935-1.4-6.167-2.1-9.7-2.1
			c-5.067,0-9.284,1.2-12.649,3.6c-3.367,2.4-5.051,5.667-5.051,9.8c0,2.867,0.816,5.3,2.45,7.3c1.633,2,3.683,3.617,6.15,4.85
			c2.466,1.234,5.532,2.518,9.2,3.85c4.665,1.667,8.365,3.2,11.1,4.6c2.732,1.4,5.065,3.435,7,6.1c1.933,2.667,2.9,6.2,2.9,10.6
			c0,3.067-0.9,5.934-2.7,8.6c-1.8,2.667-4.385,4.785-7.75,6.35c-3.367,1.566-7.218,2.35-11.55,2.35
			C602.491,94.269,598.191,93.419,594.525,91.719z"/>
		<path d="M678.023,92.669c-0.399,0.4-0.867,0.6-1.399,0.6c-0.667,0-1.185-0.2-1.55-0.6c-0.367-0.4-0.551-0.9-0.551-1.5v-65.8
			c0-0.6,0.201-1.1,0.601-1.5s0.899-0.6,1.5-0.6s1.101,0.2,1.5,0.6s0.601,0.9,0.601,1.5v65.8
			C678.656,91.769,678.424,92.269,678.023,92.669z"/>
		<path d="M781.073,59.369c0.366,0.4,0.55,0.867,0.55,1.4v25.1c0,0.8-0.3,1.4-0.9,1.8c-3.066,2.067-6.416,3.685-10.049,4.85
			c-3.635,1.166-7.318,1.75-11.051,1.75c-6.867,0-13.018-1.55-18.449-4.65c-5.436-3.1-9.701-7.383-12.801-12.85
			c-3.1-5.466-4.65-11.633-4.65-18.5c0-6.866,1.551-13.033,4.65-18.5c3.1-5.466,7.365-9.75,12.801-12.85
			c5.432-3.1,11.582-4.65,18.449-4.65c3.732,0,7.283,0.45,10.65,1.35c3.365,0.9,6.383,2.25,9.05,4.05
			c0.601,0.4,0.899,0.967,0.899,1.7c0,0.6-0.217,1.084-0.649,1.45c-0.435,0.367-0.851,0.55-1.25,0.55c-0.335,0-0.767-0.133-1.3-0.4
			c-5.6-3.133-11.4-4.7-17.4-4.7c-6.135,0-11.6,1.367-16.4,4.1c-4.799,2.734-8.549,6.534-11.25,11.4
			c-2.699,4.867-4.049,10.367-4.049,16.5c0,6.134,1.35,11.634,4.049,16.5c2.701,4.867,6.451,8.667,11.25,11.4
			c4.801,2.734,10.266,4.1,16.4,4.1c3.066,0,6.184-0.483,9.35-1.45c3.166-0.965,6.051-2.25,8.65-3.85v-22.2h-18
			c-0.534,0-1-0.2-1.4-0.6c-0.399-0.4-0.6-0.866-0.6-1.4c0-0.6,0.2-1.083,0.6-1.45c0.4-0.365,0.866-0.55,1.4-0.55h20
			C780.223,58.769,780.706,58.969,781.073,59.369z"/>
		<path d="M880.121,23.819c0.333,0.367,0.5,0.817,0.5,1.35v65.9c0,0.734-0.2,1.285-0.6,1.65c-0.4,0.367-0.9,0.55-1.5,0.55
			c-0.668,0-1.2-0.266-1.601-0.8l-45-61.5v60.6c0,0.467-0.185,0.867-0.55,1.2c-0.367,0.334-0.817,0.5-1.35,0.5
			c-0.601,0-1.067-0.166-1.4-0.5c-0.334-0.333-0.5-0.733-0.5-1.2v-66.3c0-0.666,0.183-1.166,0.55-1.5
			c0.366-0.333,0.783-0.5,1.25-0.5c0.601,0,1.101,0.234,1.5,0.7l45.4,61.9v-60.7c0-0.533,0.183-0.983,0.55-1.35
			c0.365-0.365,0.815-0.55,1.35-0.55C879.321,23.269,879.787,23.454,880.121,23.819z"/>
	</g>
	<g data-id="X" class="logo-x">
		<line stroke-width="6" stroke-miterlimit="10" x1="260.391" y1="117.156" x2="375.391" y2="2.156"/>
		<line stroke-width="6" stroke-miterlimit="10" x1="260.391" y1="2.156" x2="375.266" y2="117.031"/>
	</g>
	<g data-id="Syn">
		<path d="M11.516,91.719c-3.667-1.7-7.3-4.35-10.9-7.95c-0.4-0.4-0.6-0.9-0.6-1.5c0-0.533,0.233-1.05,0.7-1.55
			c0.465-0.5,0.965-0.75,1.5-0.75c0.6,0,1.166,0.3,1.7,0.9c2.6,3.067,5.683,5.4,9.25,7c3.566,1.6,7.316,2.4,11.25,2.4
			c5.133,0,9.366-1.233,12.7-3.7c3.333-2.465,5-5.732,5-9.8c-0.067-3.2-0.935-5.833-2.6-7.9c-1.667-2.066-3.717-3.716-6.15-4.95
			c-2.435-1.233-5.75-2.616-9.95-4.15c-4.6-1.733-8.184-3.266-10.75-4.6c-2.567-1.333-4.767-3.233-6.6-5.7
			c-1.834-2.466-2.75-5.7-2.75-9.7c0-3.266,0.9-6.233,2.7-8.9c1.8-2.666,4.366-4.766,7.7-6.3c3.333-1.533,7.2-2.3,11.6-2.3
			c3.933,0,7.666,0.717,11.2,2.15c3.533,1.435,6.333,3.45,8.4,6.05c0.666,0.934,1,1.634,1,2.1c0,0.535-0.25,1.018-0.75,1.45
			c-0.5,0.435-1.05,0.65-1.65,0.65c-0.534,0-0.967-0.2-1.3-0.6c-1.867-2.4-4.268-4.3-7.2-5.7c-2.935-1.4-6.167-2.1-9.7-2.1
			c-5.067,0-9.284,1.2-12.65,3.6c-3.367,2.4-5.05,5.667-5.05,9.8c0,2.867,0.815,5.3,2.45,7.3c1.633,2,3.683,3.617,6.15,4.85
			c2.465,1.234,5.533,2.518,9.2,3.85c4.666,1.667,8.366,3.2,11.1,4.6c2.733,1.4,5.065,3.435,7,6.1c1.933,2.667,2.9,6.2,2.9,10.6
			c0,3.067-0.9,5.934-2.7,8.6c-1.8,2.667-4.385,4.785-7.75,6.35c-3.367,1.566-7.217,2.35-11.55,2.35
			C19.481,94.269,15.181,93.419,11.516,91.719z"/>
		<path d="M132.314,26.069l-22.8,31v34.2c0,0.534-0.2,1-0.6,1.4s-0.9,0.6-1.5,0.6s-1.1-0.2-1.5-0.6s-0.6-0.866-0.6-1.4v-33.8
			l-22.9-31.4c-0.267-0.333-0.4-0.766-0.4-1.3c0-0.466,0.216-0.9,0.65-1.3c0.433-0.4,0.916-0.6,1.45-0.6c0.733,0,1.3,0.3,1.7,0.9
			l21.6,29.5l21.6-29.5c0.4-0.6,0.966-0.9,1.7-0.9c0.6,0,1.083,0.217,1.45,0.65c0.366,0.435,0.55,0.85,0.55,1.25
			C132.715,25.104,132.58,25.536,132.314,26.069z"/>
		<path d="M226.714,23.819c0.333,0.367,0.5,0.817,0.5,1.35v65.9c0,0.734-0.2,1.285-0.6,1.65c-0.4,0.367-0.9,0.55-1.5,0.55
			c-0.667,0-1.2-0.266-1.6-0.8l-45-61.5v60.6c0,0.467-0.184,0.867-0.55,1.2c-0.367,0.334-0.817,0.5-1.35,0.5
			c-0.6,0-1.067-0.166-1.4-0.5c-0.334-0.333-0.5-0.733-0.5-1.2v-66.3c0-0.666,0.183-1.166,0.55-1.5c0.366-0.333,0.783-0.5,1.25-0.5
			c0.6,0,1.1,0.234,1.5,0.7l45.4,61.9v-60.7c0-0.533,0.183-0.983,0.55-1.35c0.366-0.365,0.815-0.55,1.35-0.55
			C225.915,23.269,226.38,23.454,226.714,23.819z"/>
	</g>
</g>
</svg>
