<svg xmlns="http://www.w3.org/2000/svg" viewBox="0 0 382.382 76.823">
  <path d="M9.45 28.646a5.662 5.662 0 0 0 1.725 2.025c.716.517 1.558.899 2.525 1.149.966.25 1.966.375 3 .375.7 0 1.45-.058 2.25-.175.8-.116 1.55-.342 2.25-.675a4.9 4.9 0 0 0 1.75-1.375c.466-.583.7-1.325.7-2.225 0-.967-.309-1.75-.925-2.351-.617-.6-1.425-1.1-2.425-1.5-1-.399-2.133-.749-3.399-1.05-1.268-.3-2.55-.633-3.85-1a33.832 33.832 0 0 1-3.9-1.225 13.313 13.313 0 0 1-3.4-1.875 8.838 8.838 0 0 1-2.425-2.875c-.618-1.147-.926-2.539-.926-4.173 0-1.832.392-3.425 1.175-4.774A10.639 10.639 0 0 1 6.65 3.547c1.266-.899 2.7-1.566 4.3-2 1.6-.433 3.2-.649 4.799-.649 1.867 0 3.658.208 5.375.625 1.716.417 3.241 1.092 4.575 2.024a10.26 10.26 0 0 1 3.175 3.575c.783 1.449 1.175 3.208 1.175 5.274h-7.6c-.067-1.066-.292-1.95-.675-2.649a4.417 4.417 0 0 0-1.525-1.65 6.457 6.457 0 0 0-2.175-.85 13.365 13.365 0 0 0-2.675-.25c-.634 0-1.267.066-1.9.199a5.1 5.1 0 0 0-1.725.7c-.517.334-.942.75-1.275 1.25-.333.5-.5 1.134-.5 1.9 0 .699.133 1.267.4 1.699.267.434.792.834 1.575 1.2.783.367 1.866.733 3.25 1.101 1.383.366 3.191.833 5.425 1.399.667.134 1.591.375 2.775.725 1.183.351 2.358.909 3.525 1.676 1.167.767 2.175 1.792 3.025 3.074.85 1.283 1.275 2.925 1.275 4.925 0 1.634-.317 3.15-.95 4.55s-1.575 2.608-2.825 3.625-2.8 1.809-4.65 2.375c-1.85.566-3.992.85-6.424.85-1.967 0-3.875-.242-5.725-.725-1.85-.483-3.483-1.241-4.899-2.275-1.417-1.032-2.542-2.35-3.375-3.949-.833-1.601-1.233-3.5-1.2-5.7h7.6c-.001 1.2.215 2.216.649 3.05zM32.048 1.747h8.799l8.35 14.1 8.3-14.1h8.75l-13.25 21.999v13.699h-7.85V23.546L32.048 1.747zm44.997 0l14.899 23.949h.1V1.747h7.35v35.698h-7.85L76.695 13.547h-.1v23.898h-7.35V1.747h7.8zm56.947 0c1.7 0 3.25.15 4.65.45s2.6.792 3.6 1.475c1 .684 1.775 1.592 2.325 2.725.55 1.134.825 2.534.825 4.2 0 1.8-.409 3.3-1.225 4.5-.817 1.199-2.025 2.184-3.625 2.949 2.2.634 3.841 1.742 4.925 3.325 1.083 1.584 1.625 3.492 1.625 5.725 0 1.8-.35 3.358-1.05 4.675a9.1 9.1 0 0 1-2.825 3.225c-1.184.834-2.534 1.45-4.05 1.851a18.3 18.3 0 0 1-4.675.6h-17.299v-35.7h16.799zm-1 14.449c1.4 0 2.55-.333 3.45-1 .9-.666 1.35-1.75 1.35-3.25 0-.833-.15-1.516-.45-2.05-.3-.532-.7-.95-1.2-1.25s-1.075-.508-1.725-.625a11.508 11.508 0 0 0-2.025-.175h-7.35v8.35h7.95zm.45 15.15c.766 0 1.5-.075 2.2-.225.7-.15 1.316-.4 1.85-.75a3.783 3.783 0 0 0 1.275-1.426c.316-.6.475-1.366.475-2.3 0-1.832-.517-3.141-1.55-3.925-1.033-.782-2.4-1.175-4.1-1.175h-8.55v9.8h8.4zm15.1-29.599h8.799l8.35 14.1 8.3-14.1h8.75l-13.25 21.999v13.699h-7.85V23.546L148.542 1.747zm63.496 0c2.3 0 4.441.367 6.425 1.1a13.95 13.95 0 0 1 5.149 3.3c1.45 1.468 2.583 3.3 3.4 5.5.816 2.2 1.225 4.783 1.225 7.75 0 2.6-.334 4.999-1 7.199-.667 2.2-1.675 4.1-3.025 5.7-1.35 1.6-3.033 2.858-5.049 3.774-2.018.917-4.393 1.375-7.125 1.375h-15.399V1.747h15.399zm-.55 29.099c1.132 0 2.232-.183 3.3-.55 1.066-.366 2.016-.976 2.85-1.825.833-.85 1.5-1.958 2-3.325.5-1.366.75-3.032.75-4.999 0-1.8-.175-3.425-.525-4.875-.35-1.45-.925-2.691-1.725-3.725s-1.858-1.825-3.175-2.375c-1.317-.55-2.942-.825-4.874-.825h-5.601v22.499h7zm48.898-29.099v6.6h-18.85v7.649h17.299v6.1h-17.299v8.75h19.249v6.6h-27.099V1.747h26.7zm11.699 26.899c.433.834 1.008 1.509 1.725 2.025s1.559.899 2.525 1.149 1.966.375 3 .375c.699 0 1.449-.058 2.25-.175a7.837 7.837 0 0 0 2.25-.675 4.906 4.906 0 0 0 1.749-1.375c.466-.583.7-1.325.7-2.225 0-.967-.309-1.75-.925-2.351-.617-.6-1.425-1.1-2.425-1.5-1-.399-2.134-.749-3.4-1.05-1.268-.3-2.55-.633-3.85-1a33.77 33.77 0 0 1-3.9-1.225 13.306 13.306 0 0 1-3.399-1.875 8.85 8.85 0 0 1-2.425-2.875c-.617-1.149-.925-2.541-.925-4.175 0-1.832.392-3.425 1.175-4.774s1.808-2.475 3.075-3.375c1.267-.899 2.7-1.566 4.3-2 1.6-.433 3.199-.649 4.799-.649 1.867 0 3.658.208 5.375.625s3.242 1.092 4.575 2.024a10.25 10.25 0 0 1 3.175 3.575c.783 1.449 1.175 3.208 1.175 5.274h-7.6c-.067-1.066-.292-1.95-.675-2.649-.383-.7-.893-1.25-1.525-1.65s-1.357-.683-2.174-.85a13.382 13.382 0 0 0-2.676-.25c-.633 0-1.267.066-1.899.199a5.113 5.113 0 0 0-1.726.7c-.517.334-.941.75-1.274 1.25s-.5 1.134-.5 1.9c0 .699.133 1.267.399 1.699.268.434.792.834 1.576 1.2.782.367 1.865.733 3.249 1.101 1.383.366 3.191.833 5.425 1.399.666.134 1.592.375 2.775.725 1.182.351 2.357.909 3.524 1.676s2.175 1.792 3.024 3.074c.851 1.283 1.275 2.925 1.275 4.925 0 1.634-.317 3.15-.95 4.55-.634 1.4-1.575 2.608-2.825 3.625s-2.799 1.809-4.649 2.375c-1.85.566-3.991.85-6.425.85-1.967 0-3.875-.242-5.725-.725-1.85-.483-3.483-1.241-4.899-2.275-1.417-1.032-2.542-2.35-3.375-3.949-.833-1.601-1.233-3.5-1.2-5.7h7.6c.001 1.202.217 2.218.651 3.052zm34.297-26.899v35.698h-7.85V1.747h7.85zm28.049 35.423c-1.699.717-3.417 1.075-5.149 1.075-2.733 0-5.192-.475-7.375-1.425s-4.024-2.258-5.524-3.925c-1.5-1.666-2.65-3.625-3.45-5.875s-1.2-4.675-1.2-7.274c0-2.666.4-5.141 1.2-7.425.8-2.282 1.95-4.274 3.45-5.975s3.342-3.032 5.524-4c2.183-.966 4.642-1.449 7.375-1.449 1.833 0 3.607.274 5.324.824a15.095 15.095 0 0 1 4.65 2.425 13.313 13.313 0 0 1 3.425 3.95c.899 1.567 1.45 3.367 1.649 5.399h-7.499c-.468-2-1.367-3.499-2.7-4.499s-2.95-1.5-4.85-1.5c-1.767 0-3.267.342-4.5 1.024a8.518 8.518 0 0 0-3 2.75c-.767 1.15-1.325 2.459-1.675 3.925a19.535 19.535 0 0 0-.525 4.55c0 1.5.176 2.959.525 4.375.35 1.417.908 2.692 1.675 3.824a8.584 8.584 0 0 0 3 2.726c1.233.684 2.733 1.024 4.5 1.024 2.6 0 4.607-.657 6.024-1.975 1.416-1.316 2.241-3.225 2.475-5.725h-7.899v-5.85h14.999v19.299h-4.999l-.8-4.05c-1.4 1.802-2.95 3.061-4.65 3.777zm24.597-35.423l14.899 23.949h.101V1.747h7.35v35.698h-7.85l-14.85-23.898h-.1v23.898h-7.35V1.747h7.8zM13.157 64.625H5.673v6.968h8.372v2.092H3.15V54.36h10.465v2.094H5.673v6.106h7.483v2.065zm3.096 6.021c1.118.717 2.724 1.262 4.444 1.262 2.552 0 4.042-1.348 4.042-3.297 0-1.777-1.032-2.838-3.641-3.813-3.154-1.147-5.104-2.81-5.104-5.505 0-3.01 2.495-5.246 6.25-5.246 1.95 0 3.412.458 4.243.945l-.688 2.035c-.602-.372-1.892-.917-3.641-.917-2.638 0-3.642 1.577-3.642 2.896 0 1.807 1.176 2.695 3.842 3.728 3.269 1.262 4.903 2.839 4.903 5.677 0 2.982-2.179 5.592-6.738 5.592-1.864 0-3.899-.574-4.932-1.262l.662-2.095zm17.405-14.164H27.78V54.36h14.307v2.122h-5.906v17.202h-2.523V56.482zm14.593-3.571l1.449 6.246 1.737-6.246h1.126l1.741 6.258 1.449-6.258h1.142l-2.02 7.688h-1.094l-1.774-6.373-1.785 6.373H49.13l-2.009-7.688h1.13zm10.776 0h5.579v.942h-4.563v2.333h4.218v.891h-4.218v2.605h4.642v.916h-5.657v-7.687zm8.094 0h3.324c.906 0 1.55.27 1.933.807.225.316.337.684.337 1.099 0 .485-.138.882-.414 1.192a2.041 2.041 0 0 1-.617.451c.394.149.689.318.884.507.345.335.518.798.518 1.387 0 .495-.156.944-.469 1.345-.467.601-1.209.9-2.227.9h-3.27v-7.688zm2.935 3.25c.444 0 .79-.061 1.037-.184.388-.191.582-.537.582-1.035 0-.503-.206-.842-.619-1.016-.232-.098-.578-.146-1.036-.146h-1.877v2.381h1.913zm.352 3.548c.645 0 1.104-.185 1.379-.555.172-.233.259-.517.259-.848 0-.558-.252-.938-.755-1.141-.268-.108-.622-.163-1.062-.163h-2.086v2.706h2.265zm-16.862 6.282c.753.401 1.213 1.104 1.382 2.109h-1.031c-.123-.562-.377-.971-.764-1.227-.386-.258-.873-.385-1.46-.385-.697 0-1.284.266-1.76.801-.477.533-.715 1.328-.715 2.386 0 .914.197 1.657.59 2.231s1.034.861 1.923.861c.68 0 1.243-.201 1.689-.604s.675-1.055.685-1.954h-2.407v-.864h3.375v4.113h-.67l-.251-.989c-.347.388-.654.656-.922.807-.449.258-1.021.387-1.714.387-.896 0-1.667-.295-2.312-.885-.704-.739-1.055-1.754-1.055-3.045 0-1.287.344-2.312 1.031-3.072.653-.726 1.5-1.088 2.538-1.088.713 0 1.328.139 1.848.418zm5.415-.219v4.751c0 .558.105 1.022.316 1.392.313.559.84.838 1.583.838.89 0 1.495-.303 1.814-.906.172-.327.258-.769.258-1.323v-4.751h1.052v4.316c0 .945-.127 1.673-.383 2.182-.469.929-1.354 1.393-2.657 1.393s-2.187-.464-2.652-1.393c-.256-.509-.383-1.236-.383-2.182v-4.316h1.052zm7.094 0h1.214l2.21 3.693 2.21-3.693h1.225l-2.911 4.588v3.099h-1.042V70.36l-2.906-4.588zm10.266 7.754v-1.685l2.153-2.091c5.18-4.93 7.552-7.551 7.552-10.609 0-2.06-.967-3.963-3.994-3.963-1.841 0-3.37.936-4.306 1.717l-.874-1.936a8.986 8.986 0 0 1 5.71-2.059c4.369 0 6.209 2.995 6.209 5.896 0 3.745-2.714 6.771-6.99 10.891l-1.591 1.498v.062h9.081v2.277h-12.95zm28.739-10.359c0 6.896-2.59 10.703-7.052 10.703-3.963 0-6.678-3.713-6.74-10.422 0-6.834 2.964-10.547 7.083-10.547 4.244 0 6.709 3.807 6.709 10.266zm-11.016.312c0 5.273 1.623 8.269 4.119 8.269 2.777 0 4.119-3.276 4.119-8.456 0-4.992-1.249-8.27-4.119-8.27-2.371 0-4.119 2.934-4.119 8.457zm26.243-.312c0 6.896-2.59 10.703-7.052 10.703-3.963 0-6.678-3.713-6.74-10.422 0-6.834 2.964-10.547 7.083-10.547 4.244 0 6.709 3.807 6.709 10.266zm-11.016.312c0 5.273 1.623 8.269 4.119 8.269 2.777 0 4.119-3.276 4.119-8.456 0-4.992-1.249-8.27-4.119-8.27-2.371 0-4.119 2.934-4.119 8.457zm21.219 10.047v-5.554h-9.423v-1.778l9.049-12.95h2.965V65.85h2.839v2.122h-2.839v5.554h-2.591zm0-7.675V59.08c0-1.061.031-2.121.094-3.183h-.094a56.863 56.863 0 0 1-1.685 2.995l-4.961 6.896v.062h6.646zm25.837-1.186v1.872h-13.73v-1.872h13.73zm11.078-9.861h-6.397v-2.309h15.571v2.309h-6.428v18.723h-2.746V54.804zm27.866 7.988c0 7.209-4.4 11.078-9.767 11.078-5.585 0-9.455-4.338-9.455-10.703 0-6.678 4.119-11.047 9.735-11.047 5.773 0 9.487 4.401 9.487 10.672zm-16.352.312c0 4.525 2.434 8.551 6.74 8.551s6.74-3.963 6.74-8.738c0-4.212-2.185-8.58-6.709-8.58-4.524 0-6.771 4.181-6.771 8.767zm19.098-10.296a34.821 34.821 0 0 1 5.773-.469c3.9 0 6.677.937 8.518 2.621 1.904 1.717 2.996 4.15 2.996 7.552 0 3.433-1.092 6.241-3.027 8.176-1.996 1.966-5.242 3.026-9.33 3.026-1.965 0-3.557-.094-4.93-.25V52.808zm2.714 18.597c.687.094 1.685.125 2.746.125 5.835 0 8.955-3.246 8.955-8.925.031-4.962-2.777-8.113-8.519-8.113-1.404 0-2.465.125-3.183.28v16.633zm20.252-4.494l-2.186 6.615h-2.808l7.177-21.031h3.246l7.176 21.031h-2.902l-2.246-6.615h-7.457zm6.926-2.121l-2.09-6.055c-.469-1.372-.779-2.621-1.092-3.838h-.062c-.312 1.217-.625 2.527-1.061 3.808l-2.061 6.085h6.366zm10.205 8.736v-8.924l-6.678-12.107h3.121l2.963 5.805c.781 1.591 1.436 2.87 2.092 4.337h.062c.561-1.373 1.311-2.746 2.121-4.337l3.027-5.805h3.059l-7.021 12.076v8.955h-2.746zm29.976-10.651s-1.353.075-.676-1.827c0 0 .863-.151.676 1.827zm.287 0s1.353.075.676-1.827c0 0-.864-.151-.676 1.827z"/>
  <path id="face" d="M263.774 69.522c-.781-1.447-.974-2.888-.974-3.953 0-.758.097-1.326.149-1.58.02-.088.029-.129.036-.152.003-.005 0-.003.01-.024a.19.19 0 0 1 .09-.083c-.145-.128-.683-.541-1.171-.084-.944 1.062-.292 6.042.897 6.852 0 0 .754.088 1.134-.878l-.007.002a.19.19 0 0 1-.164-.1zm10.778-5.876c-.48-.448-1.004-.061-1.161.075a.235.235 0 0 1 .085.038c.017.016.023.025.029.033a.172.172 0 0 1 .018.03h.001a.194.194 0 0 1 .017.073l.004.021.022.123a11.164 11.164 0 0 1 .169 1.919c0 1.075-.164 2.407-.807 3.601a.192.192 0 0 1-.166.1.187.187 0 0 1-.165-.277c.602-1.113.764-2.387.763-3.423 0-1.072-.17-1.878-.192-2.011-.002-.014-.004-.012-.005-.048 0-.011 0-.024.006-.047a.215.215 0 0 1 .053-.084c-.104.034-.126.153-.126.153-.351.146-.339.023-.339.023.035-.107-.197-.568-.197-.568.011-.82.804-.145.804-.145.303-1.281-.314-1.994-.314-1.994.058-.241.745-.145.745-.145 0-.374-.431-.785-.431-.785.046-.423 1.083-.266 1.083-.266-.046-.871-1.106-1.535-1.106-1.535-.059-.483.897-.182.897-.182.116-.35-1.271-.749-1.271-.749.035-.29.839-.327.63-.508-.211-.181-1.189-.108-1.189-.108.489-.689.489-1.777-.104-2.285-.595-.507-2.063.799-2.063.799-1.363-1.487-1.992-1.252-1.992-1.252h-.027s-.629-.235-1.992 1.252c0 0-1.469-1.306-2.063-.799-.595.508-.595 1.596-.104 2.285 0 0-.979-.072-1.189.108-.209.181.595.218.63.508 0 0-1.387.399-1.271.749 0 0 .956-.302.897.182 0 0-1.061.664-1.107 1.535 0 0 1.038-.157 1.084.266 0 0-.431.411-.431.785 0 0 .688-.097.746.145 0 0-.618.713-.315 1.994 0 0 .793-.676.804.145 0 0-.232.461-.197.568 0 0 .012.122-.338-.023 0 0-.01-.037-.032-.074a.17.17 0 0 1 .006.1l-.005.021a5.332 5.332 0 0 0-.079.415 7.997 7.997 0 0 0-.086 1.185c0 1.004.184 2.352.896 3.705.057-.01.675-.11 1.429-.17a3.586 3.586 0 0 1-1.099-2.57c0-1.02.433-1.941 1.127-2.604a3.87 3.87 0 0 1 1.889-.983c-.098-.345-1.706-2.277-1.763-3.532 0 0-.173-1.949.55-1.959s1.736 1.271 2.009 2.315h.051c.273-1.045 1.286-2.325 2.009-2.315s.551 1.959.551 1.959c-.059 1.261-1.681 3.206-1.763 3.536.722.152 1.37.496 1.876.979a3.597 3.597 0 0 1 1.127 2.604 3.588 3.588 0 0 1-1.099 2.57c.796.063 1.441.172 1.441.172.314 1.342 1.247 1.221 1.247 1.221 1.184-.809 1.837-5.789.893-6.851zm-6.309-.413c-1.902 0-3.444 1.475-3.444 3.293 0 1.82 1.542 3.294 3.444 3.294 1.903 0 3.445-1.474 3.445-3.294 0-1.818-1.542-3.293-3.445-3.293zm-.493 4.705c0 .149-.112.271-.25.271h-.525c-.138 0-.25-.121-.25-.271v-.468c0-.149.112-.27.25-.27h.525c.138 0 .25.12.25.27v.468zm.096-2.001c0 .165-.125.3-.277.3h-.585c-.153 0-.277-.135-.277-.3v-.521c0-.165.124-.3.277-.3h.585c.152 0 .277.135.277.3v.521zm1.875 2.001c0 .149-.111.271-.25.271h-.524c-.139 0-.25-.121-.25-.271v-.468c0-.149.111-.27.25-.27h.524c.139 0 .25.12.25.27v.468zm.04-2.001c0 .165-.125.3-.277.3h-.584c-.154 0-.278-.135-.278-.3v-.521c0-.165.124-.3.278-.3h.584c.152 0 .277.135.277.3v.521z"/>
  <circle id="face-circle" fill="none" stroke="#171717" stroke-width="1.5" stroke-miterlimit="10" cx="268.177" cy="62.355" r="13.441"/>
</svg>
