<svg xmlns="http://www.w3.org/2000/svg" viewBox="0 0 382.382 76.823">
  <text transform="translate(0 37.445)">
    <tspan x="0" y="0" fill="#171717" font-family="'HelveticaNeue-Bold'" font-size="49.998">SYN</tspan><tspan x="102.844" y="0" fill="#171717" font-family="'HelveticaNeue-Bold'" font-size="49.998" letter-spacing="-3"> </tspan><tspan x="113.743" y="0" fill="#171717" font-family="'HelveticaNeue-Bold'" font-size="49.998">BY</tspan><tspan x="182.29" y="0" fill="#171717" font-family="'HelveticaNeue-Bold'" font-size="49.998" letter-spacing="-3"> </tspan><tspan x="193.189" y="0" fill="#171717" font-family="'HelveticaNeue-Bold'" font-size="49.998">DESIGN</tspan>
  </text>
  <g fill="#171717">
    <path d="M13.157 64.625H5.673v6.968h8.372v2.092H3.15V54.36h10.465v2.094H5.673v6.106h7.483v2.065zm3.096 6.021c1.118.717 2.724 1.262 4.444 1.262 2.552 0 4.042-1.348 4.042-3.297 0-1.777-1.032-2.838-3.641-3.813-3.154-1.147-5.104-2.81-5.104-5.505 0-3.01 2.495-5.246 6.25-5.246 1.95 0 3.412.458 4.243.945l-.688 2.035c-.602-.372-1.892-.917-3.641-.917-2.638 0-3.642 1.577-3.642 2.896 0 1.807 1.176 2.695 3.842 3.728 3.269 1.262 4.903 2.839 4.903 5.677 0 2.982-2.179 5.592-6.738 5.592-1.864 0-3.899-.574-4.932-1.262l.662-2.095zm17.405-14.164H27.78V54.36h14.307v2.122h-5.906v17.202h-2.523V56.482zM48.251 52.911l1.449 6.246 1.737-6.246h1.126l1.741 6.258 1.449-6.258h1.142l-2.02 7.688h-1.094l-1.774-6.373-1.785 6.373H49.13l-2.009-7.688h1.13zm10.776 0h5.579v.942h-4.563v2.333h4.218v.891h-4.218v2.605h4.642v.916h-5.657v-7.687zm8.094 0h3.324c.906 0 1.55.27 1.933.807.225.316.337.684.337 1.099 0 .485-.138.882-.414 1.192a2.041 2.041 0 0 1-.617.451c.394.149.689.318.884.507.345.335.518.798.518 1.387 0 .495-.156.944-.469 1.345-.467.601-1.209.9-2.227.9h-3.27v-7.688zm2.935 3.25c.444 0 .79-.061 1.037-.184.388-.191.582-.537.582-1.035 0-.503-.206-.842-.619-1.016-.232-.098-.578-.146-1.036-.146h-1.877v2.381h1.913zm.352 3.548c.645 0 1.104-.185 1.379-.555.172-.233.259-.517.259-.848 0-.558-.252-.938-.755-1.141-.268-.108-.622-.163-1.062-.163h-2.086v2.706h2.265zm-16.862 6.282c.753.401 1.213 1.104 1.382 2.109h-1.031c-.123-.562-.377-.971-.764-1.227-.386-.258-.873-.385-1.46-.385-.697 0-1.284.266-1.76.801-.477.533-.715 1.328-.715 2.386 0 .914.197 1.657.59 2.231s1.034.861 1.923.861c.68 0 1.243-.201 1.689-.604s.675-1.055.685-1.954h-2.407v-.864h3.375v4.113h-.67l-.251-.989c-.347.388-.654.656-.922.807-.449.258-1.021.387-1.714.387-.896 0-1.667-.295-2.312-.885-.704-.739-1.055-1.754-1.055-3.045 0-1.287.344-2.312 1.031-3.072.653-.726 1.5-1.088 2.538-1.088.713 0 1.328.139 1.848.418zm5.415-.219v4.751c0 .558.105 1.022.316 1.392.313.559.84.838 1.583.838.89 0 1.495-.303 1.814-.906.172-.327.258-.769.258-1.323v-4.751h1.052v4.316c0 .945-.127 1.673-.383 2.182-.469.929-1.354 1.393-2.657 1.393s-2.187-.464-2.652-1.393c-.256-.509-.383-1.236-.383-2.182v-4.316h1.052zm7.094 0h1.214l2.21 3.693 2.21-3.693h1.225l-2.911 4.588v3.099h-1.042V70.36l-2.906-4.588zM76.321 73.526v-1.685l2.153-2.091c5.18-4.93 7.552-7.551 7.552-10.609 0-2.06-.967-3.963-3.994-3.963-1.841 0-3.37.936-4.306 1.717l-.874-1.936a8.986 8.986 0 0 1 5.71-2.059c4.369 0 6.209 2.995 6.209 5.896 0 3.745-2.714 6.771-6.99 10.891l-1.591 1.498v.062h9.081v2.277h-12.95zm28.739-10.359c0 6.896-2.59 10.703-7.052 10.703-3.963 0-6.678-3.713-6.74-10.422 0-6.834 2.964-10.547 7.083-10.547 4.244 0 6.709 3.807 6.709 10.266zm-11.016.312c0 5.273 1.623 8.269 4.119 8.269 2.777 0 4.119-3.276 4.119-8.456 0-4.992-1.249-8.27-4.119-8.27-2.371 0-4.119 2.934-4.119 8.457zm26.243-.312c0 6.896-2.59 10.703-7.052 10.703-3.963 0-6.678-3.713-6.74-10.422 0-6.834 2.964-10.547 7.083-10.547 4.244 0 6.709 3.807 6.709 10.266zm-11.016.312c0 5.273 1.623 8.269 4.119 8.269 2.777 0 4.119-3.276 4.119-8.456 0-4.992-1.249-8.27-4.119-8.27-2.371 0-4.119 2.934-4.119 8.457zm21.219 10.047v-5.554h-9.423v-1.778l9.049-12.95h2.965V65.85h2.839v2.122h-2.839v5.554h-2.591zm0-7.675V59.08c0-1.061.031-2.121.094-3.183h-.094a56.863 56.863 0 0 1-1.685 2.995l-4.961 6.896v.062h6.646zm25.837-1.186v1.872h-13.73v-1.872h13.73zm11.078-9.861h-6.397v-2.309h15.571v2.309h-6.428v18.723h-2.746V54.804zm27.866 7.988c0 7.209-4.4 11.078-9.767 11.078-5.585 0-9.455-4.338-9.455-10.703 0-6.678 4.119-11.047 9.735-11.047 5.773 0 9.487 4.401 9.487 10.672zm-16.352.312c0 4.525 2.434 8.551 6.74 8.551s6.74-3.963 6.74-8.738c0-4.212-2.185-8.58-6.709-8.58-4.524 0-6.771 4.181-6.771 8.767zm19.098-10.296a34.821 34.821 0 0 1 5.773-.469c3.9 0 6.677.937 8.518 2.621 1.904 1.717 2.996 4.15 2.996 7.552 0 3.433-1.092 6.241-3.027 8.176-1.996 1.966-5.242 3.026-9.33 3.026-1.965 0-3.557-.094-4.93-.25V52.808zm2.714 18.597c.687.094 1.685.125 2.746.125 5.835 0 8.955-3.246 8.955-8.925.031-4.962-2.777-8.113-8.519-8.113-1.404 0-2.465.125-3.183.28v16.633zm20.252-4.494l-2.186 6.615h-2.808l7.177-21.031h3.246l7.176 21.031h-2.902l-2.246-6.615h-7.457zm6.926-2.121l-2.09-6.055c-.469-1.372-.779-2.621-1.092-3.838h-.062c-.312 1.217-.625 2.527-1.061 3.808l-2.061 6.085h6.366zm10.205 8.736v-8.924l-6.678-12.107h3.121l2.963 5.805c.781 1.591 1.436 2.87 2.092 4.337h.062c.561-1.373 1.311-2.746 2.121-4.337l3.027-5.805h3.059l-7.021 12.076v8.955h-2.746z"/>
  </g>
  <path d="M268.09 62.875s-1.353.075-.676-1.827c0 0 .863-.151.676 1.827zm.287 0s1.353.075.676-1.827c0 0-.864-.151-.676 1.827z" fill="#171717"/>
  <path fill="#171717" d="M263.774 69.522c-.781-1.447-.974-2.888-.974-3.953 0-.758.097-1.326.149-1.58.02-.088.029-.129.036-.152.003-.005 0-.003.01-.024a.19.19 0 0 1 .09-.083c-.145-.128-.683-.541-1.171-.084-.944 1.062-.292 6.042.897 6.852 0 0 .754.088 1.134-.878l-.007.002a.19.19 0 0 1-.164-.1zm10.778-5.876c-.48-.448-1.004-.061-1.161.075a.235.235 0 0 1 .085.038c.017.016.023.025.029.033a.172.172 0 0 1 .018.03h.001a.194.194 0 0 1 .017.073l.004.021.022.123a11.164 11.164 0 0 1 .169 1.919c0 1.075-.164 2.407-.807 3.601a.192.192 0 0 1-.166.1.187.187 0 0 1-.165-.277c.602-1.113.764-2.387.763-3.423 0-1.072-.17-1.878-.192-2.011-.002-.014-.004-.012-.005-.048 0-.011 0-.024.006-.047a.215.215 0 0 1 .053-.084c-.104.034-.126.153-.126.153-.351.146-.339.023-.339.023.035-.107-.197-.568-.197-.568.011-.82.804-.145.804-.145.303-1.281-.314-1.994-.314-1.994.058-.241.745-.145.745-.145 0-.374-.431-.785-.431-.785.046-.423 1.083-.266 1.083-.266-.046-.871-1.106-1.535-1.106-1.535-.059-.483.897-.182.897-.182.116-.35-1.271-.749-1.271-.749.035-.29.839-.327.63-.508-.211-.181-1.189-.108-1.189-.108.489-.689.489-1.777-.104-2.285-.595-.507-2.063.799-2.063.799-1.363-1.487-1.992-1.252-1.992-1.252h-.027s-.629-.235-1.992 1.252c0 0-1.469-1.306-2.063-.799-.595.508-.595 1.596-.104 2.285 0 0-.979-.072-1.189.108-.209.181.595.218.63.508 0 0-1.387.399-1.271.749 0 0 .956-.302.897.182 0 0-1.061.664-1.107 1.535 0 0 1.038-.157 1.084.266 0 0-.431.411-.431.785 0 0 .688-.097.746.145 0 0-.618.713-.315 1.994 0 0 .793-.676.804.145 0 0-.232.461-.197.568 0 0 .012.122-.338-.023 0 0-.01-.037-.032-.074a.17.17 0 0 1 .006.1l-.005.021a5.332 5.332 0 0 0-.079.415 7.997 7.997 0 0 0-.086 1.185c0 1.004.184 2.352.896 3.705.057-.01.675-.11 1.429-.17a3.586 3.586 0 0 1-1.099-2.57c0-1.02.433-1.941 1.127-2.604a3.87 3.87 0 0 1 1.889-.983c-.098-.345-1.706-2.277-1.763-3.532 0 0-.173-1.949.55-1.959s1.736 1.271 2.009 2.315h.051c.273-1.045 1.286-2.325 2.009-2.315s.551 1.959.551 1.959c-.059 1.261-1.681 3.206-1.763 3.536.722.152 1.37.496 1.876.979a3.597 3.597 0 0 1 1.127 2.604 3.588 3.588 0 0 1-1.099 2.57c.796.063 1.441.172 1.441.172.314 1.342 1.247 1.221 1.247 1.221 1.184-.809 1.837-5.789.893-6.851zm-6.309-.413c-1.902 0-3.444 1.475-3.444 3.293 0 1.82 1.542 3.294 3.444 3.294 1.903 0 3.445-1.474 3.445-3.294 0-1.818-1.542-3.293-3.445-3.293zm-.493 4.705c0 .149-.112.271-.25.271h-.525c-.138 0-.25-.121-.25-.271v-.468c0-.149.112-.27.25-.27h.525c.138 0 .25.12.25.27v.468zm.096-2.001c0 .165-.125.3-.277.3h-.585c-.153 0-.277-.135-.277-.3v-.521c0-.165.124-.3.277-.3h.585c.152 0 .277.135.277.3v.521zm1.875 2.001c0 .149-.111.271-.25.271h-.524c-.139 0-.25-.121-.25-.271v-.468c0-.149.111-.27.25-.27h.524c.139 0 .25.12.25.27v.468zm.04-2.001c0 .165-.125.3-.277.3h-.584c-.154 0-.278-.135-.278-.3v-.521c0-.165.124-.3.278-.3h.584c.152 0 .277.135.277.3v.521z"/>
  <circle fill="none" stroke="#171717" stroke-width="1.5" stroke-miterlimit="10" cx="268.177" cy="62.355" r="13.441"/>
</svg>
