<?xml version="1.0" encoding="utf-8"?>
<!-- Generator: Adobe Illustrator 15.1.0, SVG Export Plug-In . SVG Version: 6.00 Build 0)  -->
<!DOCTYPE svg PUBLIC "-//W3C//DTD SVG 1.1//EN" "http://www.w3.org/Graphics/SVG/1.1/DTD/svg11.dtd">
<svg version="1.1" id="Layer_1" xmlns="http://www.w3.org/2000/svg" xmlns:xlink="http://www.w3.org/1999/xlink" x="0px" y="0px"
	 width="86.152px" height="11.881px" viewBox="26.639 4.346 86.152 11.881" enable-background="new 26.639 4.346 86.152 11.881"
	 xml:space="preserve">
<g>
	<path fill="#5E656E" d="M68.791,9.979c0,2.024-1.422,3.168-4.269,3.434c-0.205,1.879-2.039,2.814-5.5,2.814
		c-2.259,0-6.276-1.172-12.057-3.521c-3.256,1.644-6.396,2.463-9.416,2.463c-3.432,0-5.354-1.112-5.764-3.344
		c-3.433-0.267-5.147-1.32-5.147-3.168c0-1.261,0.748-2.259,2.243-2.992c1.496-0.733,3.623-1.101,6.381-1.101
		c2.933,0,6.276,0.984,10.031,2.95c4.02-2.114,7.393-3.168,10.12-3.168c1.378,0,2.552,0.469,3.521,1.407l-0.438,0.22
		c-0.765-0.908-1.85-1.363-3.256-1.363c-2.376,0-5.574,1.027-9.594,3.081c0.997,0.47,2.757,1.263,5.279,2.375
		c3.932-2.463,7.979-3.695,12.146-3.695c1.407,0,2.685,0.322,3.827,0.967C68.16,8.045,68.791,8.924,68.791,9.979z M44.24,8.133
		C40.367,6.022,36.921,4.965,33.9,4.965c-2.083,0-3.776,0.33-5.082,0.99c-1.306,0.661-1.958,1.562-1.958,2.706
		c0,1.701,1.644,2.67,4.929,2.902c0.264-2.314,1.949-3.478,5.061-3.478c1.231,0,2.845,0.472,4.84,1.408L44.24,8.133z M40.587,10.067
		c-2.083-0.938-3.667-1.406-4.752-1.406c-2.229,0-3.506,0.969-3.828,2.902C35.352,11.741,38.211,11.243,40.587,10.067z
		 M46.616,12.577l-5.721-2.375c-2.405,1.262-5.354,1.803-8.845,1.627c0.411,2.055,2.229,3.08,5.456,3.08
		C40.5,14.909,43.536,14.131,46.616,12.577z M49.828,10.815c-1.115-0.558-2.891-1.406-5.324-2.551l-2.508,1.362l5.544,2.42
		L49.828,10.815z M64.215,13.458c-0.646,0.117-1.438,0.176-2.376,0.176c-3.843,0-7.759-0.896-11.748-2.684l-2.243,1.229
		c5.279,2.172,9.299,3.258,12.057,3.258C62.631,15.438,64.068,14.776,64.215,13.458z M68.527,9.979c0-0.996-0.602-1.816-1.804-2.463
		c-1.085-0.586-2.316-0.882-3.695-0.882c-4.021,0-7.949,1.203-11.792,3.609c4.575,1.937,8.916,2.83,13.022,2.685
		c0-1.107-0.382-2.066-1.144-2.875c-0.881-0.931-2.039-1.394-3.478-1.394c-1.23,0-1.922,0.526-2.067,1.584
		c0.204-0.091,0.396-0.134,0.571-0.134c0.411,0,0.615,0.234,0.615,0.703c0,0.295-0.204,0.439-0.615,0.439
		c-0.646,0-0.969-0.32-0.969-0.967c0-0.471,0.221-0.881,0.66-1.232c0.438-0.351,1.041-0.527,1.805-0.527
		c1.524,0,2.741,0.47,3.651,1.408c0.819,0.82,1.23,1.818,1.23,2.99C67.192,12.726,68.527,11.741,68.527,9.979z"/>
	<path fill="#5E656E" d="M112.791,8.661c0,1.848-1.715,2.902-5.147,3.168c-0.41,2.229-2.332,3.344-5.765,3.344
		c-3.021,0-6.16-0.82-9.416-2.463c-5.778,2.348-9.797,3.52-12.055,3.52c-3.464,0-5.298-0.938-5.5-2.813
		c-2.847-0.267-4.271-1.408-4.271-3.433c0-1.057,0.631-1.938,1.894-2.641c1.145-0.646,2.42-0.968,3.827-0.968
		c4.164,0,8.213,1.231,12.146,3.694c1.408-0.586,3.168-1.377,5.279-2.375c-4.021-2.052-7.216-3.079-9.593-3.079
		c-1.407,0-2.494,0.455-3.256,1.363l-0.438-0.22c0.967-0.938,2.142-1.407,3.521-1.407c2.729,0,6.104,1.055,10.118,3.167
		c3.757-1.964,7.101-2.949,10.033-2.949c2.756,0,4.883,0.367,6.379,1.101S112.791,7.399,112.791,8.661z M88.195,10.245
		c-3.844-2.404-7.772-3.607-11.791-3.607c-1.381,0-2.61,0.295-3.696,0.881c-1.203,0.646-1.804,1.467-1.804,2.463
		c0,1.761,1.334,2.744,4.005,2.949c0-1.174,0.409-2.172,1.229-2.992c0.908-0.938,2.127-1.407,3.65-1.407
		c0.766,0,1.363,0.176,1.807,0.526c0.438,0.353,0.658,0.764,0.658,1.232c0,0.646-0.322,0.967-0.969,0.967
		c-0.41,0-0.615-0.146-0.615-0.439c0-0.469,0.205-0.702,0.615-0.702c0.176,0,0.365,0.043,0.57,0.133
		C81.71,9.19,81.02,8.663,79.789,8.663c-1.438,0-2.598,0.463-3.479,1.393c-0.763,0.81-1.144,1.768-1.144,2.875
		C79.277,13.077,83.619,12.183,88.195,10.245z M91.584,12.183L89.34,10.95c-3.989,1.789-7.905,2.684-11.748,2.684
		c-0.938,0-1.731-0.059-2.377-0.176c0.146,1.318,1.584,1.979,4.312,1.979C82.285,15.438,86.303,14.353,91.584,12.183z M97.436,9.629
		l-2.508-1.362c-1.203,0.557-2.979,1.405-5.324,2.551l2.287,1.231L97.436,9.629z M107.379,11.829
		c-3.489,0.176-6.438-0.365-8.844-1.627l-5.722,2.375c3.08,1.555,6.117,2.332,9.107,2.332
		C105.18,14.909,106.998,13.883,107.379,11.829z M112.572,8.661c0-1.145-0.653-2.045-1.959-2.706c-1.305-0.66-3-0.99-5.081-0.99
		c-3.021,0-6.47,1.057-10.341,3.168l2.554,1.363c1.993-0.938,3.606-1.408,4.84-1.408c3.106,0,4.795,1.16,5.06,3.478
		C110.928,11.331,112.572,10.362,112.572,8.661z M107.424,11.563c-0.323-1.937-1.6-2.902-3.827-2.902
		c-1.087,0-2.671,0.471-4.753,1.406C101.219,11.243,104.08,11.741,107.424,11.563z"/>
</g>
</svg>
