<?xml version="1.0" encoding="utf-8"?>
<!-- Generator: Adobe Illustrator 15.1.0, SVG Export Plug-In . SVG Version: 6.00 Build 0)  -->
<!DOCTYPE svg PUBLIC "-//W3C//DTD SVG 1.1//EN" "http://www.w3.org/Graphics/SVG/1.1/DTD/svg11.dtd">
<svg version="1.1" id="Text" xmlns="http://www.w3.org/2000/svg" xmlns:xlink="http://www.w3.org/1999/xlink" x="0px" y="0px"
	 width="403.788px" height="188.575px" viewBox="0 0 403.788 188.575" enable-background="new 0 0 403.788 188.575"
	 xml:space="preserve">
<g>
	<g>
		<g>
			<g id="eye_balls">
				<path fill="#463D29" d="M201.133,45.753c0,0-7.138,0.396-3.569-9.65C197.563,36.103,202.125,35.31,201.133,45.753z"/>
				<path fill="#463D29" d="M202.654,45.753c0,0,7.139,0.396,3.569-9.65C206.223,36.103,201.662,35.31,202.654,45.753z"/>
			</g>
		</g>
		<g>
			<g>
				<path fill="#463D29" d="M201.948,47.647c-10.049,0-18.194,7.788-18.194,17.393c0,9.606,8.145,17.394,18.194,17.394
					s18.194-7.787,18.194-17.394C220.142,55.436,211.997,47.647,201.948,47.647z M199.34,72.488c0,0.789-0.591,1.428-1.319,1.428
					h-2.775c-0.727,0-1.317-0.639-1.317-1.428V70.02c0-0.789,0.59-1.428,1.317-1.428h2.775c0.728,0,1.319,0.639,1.319,1.428V72.488z
					 M199.846,61.92c0,0.876-0.657,1.586-1.465,1.586h-3.085c-0.809,0-1.465-0.71-1.465-1.586v-2.746
					c0-0.877,0.656-1.586,1.465-1.586h3.085c0.809,0,1.465,0.709,1.465,1.586V61.92z M209.75,72.488c0,0.789-0.59,1.428-1.318,1.428
					h-2.774c-0.728,0-1.318-0.639-1.318-1.428V70.02c0-0.789,0.59-1.428,1.318-1.428h2.774c0.729,0,1.318,0.639,1.318,1.428V72.488z
					 M209.958,61.92c0,0.876-0.656,1.586-1.465,1.586h-3.084c-0.81,0-1.465-0.71-1.465-1.586v-2.746
					c0-0.877,0.655-1.586,1.465-1.586h3.084c0.809,0,1.465,0.709,1.465,1.586V61.92z M178.344,80.856
					c-4.125-7.643-5.135-15.248-5.135-20.875c0-3.997,0.51-7.002,0.79-8.346c0.098-0.461,0.153-0.679,0.189-0.805
					c0.01-0.023,0-0.014,0.05-0.127c0.099-0.211,0.27-0.358,0.463-0.455c-0.796-0.696-3.614-2.812-6.173-0.43
					c-4.986,5.617-1.539,31.911,4.739,36.188c0,0,4.018,0.501,6.018-4.637c-0.022,0.001-0.045,0.008-0.068,0.008
					C178.864,81.378,178.523,81.188,178.344,80.856z M235.26,49.819c-2.504-2.332-5.256-0.354-6.12,0.384
					c0.24,0.053,0.36,0.161,0.433,0.216c0.092,0.082,0.128,0.135,0.16,0.177c0.056,0.082,0.074,0.124,0.092,0.162h0.001
					c0.057,0.126,0.087,0.258,0.09,0.387c0.006,0.03,0.013,0.068,0.021,0.112c0.028,0.151,0.069,0.372,0.12,0.651
					c0.1,0.558,0.232,1.35,0.365,2.331c0.266,1.962,0.53,4.676,0.53,7.802c-0.002,5.674-0.867,12.709-4.263,19.015
					c-0.18,0.332-0.522,0.521-0.874,0.521c-0.16,0-0.32-0.04-0.47-0.121c-0.483-0.258-0.662-0.86-0.402-1.343
					c3.173-5.873,4.03-12.597,4.027-18.072c-0.002-5.663-0.897-9.917-1.017-10.62c-0.01-0.073-0.02-0.057-0.025-0.252
					c0-0.057,0.001-0.128,0.029-0.246c0.03-0.098,0.079-0.262,0.259-0.447c-0.539,0.188-0.648,0.812-0.648,0.812
					c-1.847,0.767-1.785,0.127-1.785,0.127c0.186-0.574-1.046-3-1.046-3c0.062-4.339,4.247-0.767,4.247-0.767
					c1.6-6.765-1.662-10.53-1.662-10.53c0.308-1.275,3.938-0.765,3.938-0.765c0-1.979-2.276-4.147-2.276-4.147
					c0.246-2.234,5.723-1.404,5.723-1.404c-0.246-4.597-5.847-8.105-5.847-8.105c-0.308-2.553,4.739-0.958,4.739-0.958
					c0.615-1.851-6.708-3.957-6.708-3.957c0.185-1.531,4.432-1.723,3.323-2.681c-1.107-0.957-6.276-0.574-6.276-0.574
					c2.584-3.638,2.584-9.381-0.555-12.062c-3.139-2.681-10.894,4.212-10.894,4.212c-7.201-7.85-10.523-6.604-10.523-6.604h-0.142
					c0,0-3.323-1.245-10.524,6.604c0,0-7.755-6.893-10.894-4.212c-3.139,2.681-3.139,8.424-0.554,12.062c0,0-5.17-0.382-6.278,0.574
					c-1.107,0.958,3.139,1.15,3.323,2.681c0,0-7.323,2.106-6.708,3.957c0,0,5.046-1.595,4.739,0.958c0,0-5.601,3.509-5.847,8.105
					c0,0,5.478-0.83,5.723,1.404c0,0-2.277,2.169-2.277,4.147c0,0,3.631-0.511,3.939,0.765c0,0-3.262,3.766-1.662,10.53
					c0,0,4.185-3.572,4.247,0.767c0,0-1.231,2.426-1.046,3c0,0,0.061,0.64-1.785-0.127c0,0-0.028-0.158-0.123-0.34
					c0.029,0.156,0.034,0.316-0.016,0.475c0,0,0,0.002,0,0.003c-0.006,0.021-0.016,0.057-0.028,0.107
					c-0.025,0.101-0.06,0.252-0.102,0.452c-0.084,0.398-0.197,0.989-0.31,1.742c-0.225,1.505-0.45,3.661-0.45,6.254
					c0,5.305,0.946,12.421,4.709,19.57c0.428-0.071,3.646-0.59,7.552-0.898c-3.566-3.485-5.791-8.285-5.79-13.578
					c-0.001-5.377,2.287-10.252,5.951-13.75c2.701-2.584,6.162-4.426,10.021-5.221c-0.819-2.119-9.064-12.14-9.359-18.628
					c0,0-0.91-10.294,2.908-10.344c3.817-0.05,9.166,6.709,10.606,12.229h0.271c1.44-5.52,6.789-12.278,10.606-12.229
					c3.817,0.05,2.908,10.344,2.908,10.344c-0.296,6.502-8.576,16.553-9.366,18.643c3.836,0.801,7.277,2.636,9.964,5.206
					c3.665,3.498,5.952,8.373,5.951,13.75c0.001,5.293-2.224,10.093-5.79,13.578c4.198,0.331,7.601,0.906,7.601,0.906
					c1.661,7.085,6.585,6.447,6.585,6.447C236.799,81.73,240.245,55.437,235.26,49.819z"/>
			</g>
		</g>
	</g>
	<g>
		<g>
			<path fill="#463D29" d="M15.93,118.972c0.433,0.834,1.008,1.509,1.725,2.025c0.716,0.517,1.558,0.899,2.525,1.149
				c0.966,0.25,1.966,0.375,3,0.375c0.7,0,1.45-0.058,2.25-0.175c0.8-0.116,1.55-0.342,2.25-0.675c0.7-0.333,1.283-0.791,1.75-1.375
				c0.466-0.583,0.7-1.325,0.7-2.225c0-0.967-0.309-1.75-0.925-2.351c-0.617-0.6-1.425-1.1-2.425-1.5
				c-1-0.399-2.133-0.749-3.399-1.05c-1.268-0.3-2.55-0.633-3.85-1c-1.333-0.332-2.633-0.741-3.9-1.225
				c-1.267-0.482-2.4-1.107-3.4-1.875c-1-0.767-1.808-1.725-2.425-2.875c-0.617-1.149-0.925-2.541-0.925-4.175
				c0-1.832,0.392-3.425,1.175-4.774c0.783-1.35,1.808-2.475,3.075-3.375c1.266-0.899,2.7-1.566,4.3-2
				c1.6-0.433,3.2-0.649,4.799-0.649c1.867,0,3.658,0.208,5.375,0.625c1.716,0.417,3.241,1.092,4.575,2.024
				c1.333,0.934,2.391,2.125,3.175,3.575c0.783,1.449,1.175,3.208,1.175,5.274h-7.6c-0.067-1.066-0.292-1.95-0.675-2.649
				c-0.383-0.7-0.892-1.25-1.525-1.65c-0.634-0.4-1.358-0.683-2.175-0.85c-0.817-0.167-1.708-0.25-2.675-0.25
				c-0.634,0-1.267,0.066-1.9,0.199c-0.634,0.134-1.208,0.367-1.725,0.7c-0.517,0.334-0.942,0.75-1.275,1.25
				c-0.333,0.5-0.5,1.134-0.5,1.9c0,0.699,0.133,1.267,0.4,1.699c0.267,0.434,0.792,0.834,1.575,1.2
				c0.783,0.367,1.866,0.733,3.25,1.101c1.383,0.366,3.191,0.833,5.425,1.399c0.667,0.134,1.591,0.375,2.775,0.725
				c1.183,0.351,2.358,0.909,3.525,1.676c1.167,0.767,2.175,1.792,3.025,3.074c0.85,1.283,1.275,2.925,1.275,4.925
				c0,1.634-0.317,3.15-0.95,4.55c-0.633,1.4-1.575,2.608-2.825,3.625s-2.8,1.809-4.65,2.375c-1.85,0.566-3.992,0.85-6.424,0.85
				c-1.967,0-3.875-0.242-5.725-0.725c-1.85-0.483-3.483-1.241-4.899-2.275c-1.417-1.032-2.542-2.35-3.375-3.949
				c-0.833-1.601-1.233-3.5-1.2-5.7h7.6C15.28,117.122,15.496,118.139,15.93,118.972z"/>
			<path fill="#463D29" d="M38.528,92.073h8.799l8.35,14.1l8.3-14.1h8.75l-13.25,21.999v13.699h-7.85v-13.899L38.528,92.073z"/>
			<path fill="#463D29" d="M83.525,92.073l14.899,23.949h0.1V92.073h7.35v35.698h-7.85l-14.849-23.898h-0.1v23.898h-7.35V92.073
				H83.525z"/>
			<path fill="#463D29" d="M143.472,92.073c1.7,0,3.25,0.15,4.65,0.45s2.6,0.792,3.6,1.475c1,0.684,1.775,1.592,2.325,2.725
				c0.55,1.134,0.825,2.534,0.825,4.2c0,1.8-0.409,3.3-1.225,4.5c-0.817,1.199-2.025,2.184-3.625,2.949
				c2.2,0.634,3.841,1.742,4.925,3.325c1.083,1.584,1.625,3.492,1.625,5.725c0,1.8-0.35,3.358-1.05,4.675
				c-0.7,1.317-1.642,2.393-2.825,3.225c-1.184,0.834-2.534,1.45-4.05,1.851c-1.517,0.399-3.075,0.6-4.675,0.6h-17.299V92.073
				H143.472z M142.472,106.522c1.4,0,2.55-0.333,3.45-1c0.9-0.666,1.35-1.75,1.35-3.25c0-0.833-0.15-1.516-0.45-2.05
				c-0.3-0.532-0.7-0.95-1.2-1.25s-1.075-0.508-1.725-0.625c-0.65-0.116-1.325-0.175-2.025-0.175h-7.35v8.35H142.472z
				 M142.922,121.672c0.766,0,1.5-0.075,2.2-0.225c0.7-0.15,1.316-0.4,1.85-0.75c0.533-0.351,0.958-0.825,1.275-1.426
				c0.316-0.6,0.475-1.366,0.475-2.3c0-1.832-0.517-3.141-1.55-3.925c-1.033-0.782-2.4-1.175-4.1-1.175h-8.55v9.8H142.922z"/>
			<path fill="#463D29" d="M158.021,92.073h8.799l8.35,14.1l8.3-14.1h8.75l-13.25,21.999v13.699h-7.85v-13.899L158.021,92.073z"/>
			<path fill="#463D29" d="M224.518,92.073c2.3,0,4.441,0.367,6.425,1.1c1.982,0.733,3.7,1.834,5.149,3.3
				c1.45,1.468,2.583,3.3,3.4,5.5c0.816,2.2,1.225,4.783,1.225,7.75c0,2.6-0.333,4.999-1,7.199c-0.667,2.2-1.675,4.1-3.025,5.7
				c-1.35,1.6-3.033,2.858-5.05,3.774c-2.017,0.917-4.392,1.375-7.125,1.375h-15.399V92.073H224.518z M223.968,121.172
				c1.132,0,2.232-0.183,3.3-0.55c1.066-0.366,2.016-0.976,2.85-1.825c0.833-0.85,1.5-1.958,2-3.325
				c0.5-1.366,0.75-3.032,0.75-4.999c0-1.8-0.175-3.425-0.525-4.875s-0.925-2.691-1.725-3.725s-1.858-1.825-3.175-2.375
				c-1.317-0.55-2.942-0.825-4.875-0.825h-5.6v22.499H223.968z"/>
			<path fill="#463D29" d="M272.865,92.073v6.6h-18.849v7.649h17.299v6.1h-17.299v8.75h19.249v6.6h-27.099V92.073H272.865z"/>
			<path fill="#463D29" d="M284.564,118.972c0.433,0.834,1.008,1.509,1.725,2.025c0.716,0.517,1.558,0.899,2.525,1.149
				c0.966,0.25,1.966,0.375,3,0.375c0.7,0,1.45-0.058,2.25-0.175c0.8-0.116,1.55-0.342,2.25-0.675c0.7-0.333,1.283-0.791,1.75-1.375
				c0.466-0.583,0.7-1.325,0.7-2.225c0-0.967-0.309-1.75-0.925-2.351c-0.617-0.6-1.425-1.1-2.425-1.5
				c-1-0.399-2.133-0.749-3.399-1.05c-1.268-0.3-2.55-0.633-3.85-1c-1.333-0.332-2.633-0.741-3.9-1.225
				c-1.267-0.482-2.4-1.107-3.4-1.875c-1-0.767-1.808-1.725-2.425-2.875c-0.617-1.149-0.925-2.541-0.925-4.175
				c0-1.832,0.392-3.425,1.175-4.774c0.783-1.35,1.808-2.475,3.075-3.375c1.266-0.899,2.7-1.566,4.3-2
				c1.6-0.433,3.2-0.649,4.799-0.649c1.867,0,3.658,0.208,5.375,0.625c1.716,0.417,3.241,1.092,4.575,2.024
				c1.333,0.934,2.391,2.125,3.175,3.575c0.783,1.449,1.175,3.208,1.175,5.274h-7.6c-0.067-1.066-0.292-1.95-0.675-2.649
				c-0.383-0.7-0.892-1.25-1.525-1.65c-0.634-0.4-1.358-0.683-2.175-0.85c-0.817-0.167-1.708-0.25-2.675-0.25
				c-0.634,0-1.267,0.066-1.9,0.199c-0.634,0.134-1.208,0.367-1.725,0.7c-0.517,0.334-0.942,0.75-1.275,1.25
				c-0.333,0.5-0.5,1.134-0.5,1.9c0,0.699,0.133,1.267,0.4,1.699c0.267,0.434,0.792,0.834,1.575,1.2
				c0.783,0.367,1.866,0.733,3.25,1.101c1.383,0.366,3.191,0.833,5.425,1.399c0.667,0.134,1.591,0.375,2.775,0.725
				c1.183,0.351,2.358,0.909,3.525,1.676c1.167,0.767,2.175,1.792,3.025,3.074c0.85,1.283,1.275,2.925,1.275,4.925
				c0,1.634-0.317,3.15-0.95,4.55c-0.633,1.4-1.575,2.608-2.825,3.625s-2.8,1.809-4.65,2.375c-1.85,0.566-3.992,0.85-6.424,0.85
				c-1.967,0-3.875-0.242-5.725-0.725c-1.85-0.483-3.483-1.241-4.899-2.275c-1.417-1.032-2.542-2.35-3.375-3.949
				c-0.833-1.601-1.233-3.5-1.2-5.7h7.6C283.915,117.122,284.131,118.139,284.564,118.972z"/>
			<path fill="#463D29" d="M318.862,92.073v35.698h-7.85V92.073H318.862z"/>
			<path fill="#463D29" d="M346.911,127.496c-1.701,0.717-3.418,1.075-5.15,1.075c-2.733,0-5.191-0.475-7.375-1.425
				s-4.024-2.258-5.524-3.925c-1.5-1.666-2.65-3.625-3.45-5.875c-0.8-2.25-1.2-4.675-1.2-7.274c0-2.666,0.4-5.141,1.2-7.425
				c0.8-2.282,1.95-4.274,3.45-5.975s3.341-3.032,5.524-4c2.183-0.966,4.642-1.449,7.375-1.449c1.834,0,3.607,0.274,5.324,0.824
				c1.717,0.551,3.268,1.358,4.651,2.425c1.383,1.067,2.525,2.384,3.426,3.95c0.898,1.567,1.449,3.367,1.648,5.399h-7.499
				c-0.469-2-1.367-3.499-2.701-4.499s-2.949-1.5-4.85-1.5c-1.767,0-3.267,0.342-4.5,1.024c-1.233,0.684-2.233,1.601-3,2.75
				c-0.767,1.15-1.325,2.459-1.675,3.925c-0.35,1.467-0.525,2.983-0.525,4.55c0,1.5,0.175,2.959,0.525,4.375
				c0.35,1.417,0.908,2.692,1.675,3.824c0.767,1.134,1.767,2.043,3,2.726c1.233,0.684,2.733,1.024,4.5,1.024
				c2.6,0,4.607-0.657,6.025-1.975c1.416-1.316,2.24-3.225,2.475-5.725h-7.901v-5.85h15v19.299h-5l-0.799-4.05
				C350.161,125.521,348.61,126.78,346.911,127.496z"/>
			<path fill="#463D29" d="M371.509,92.073l14.898,23.949h0.102V92.073h7.35v35.698h-7.85l-14.85-23.898h-0.1v23.898h-7.35V92.073
				H371.509z"/>
		</g>
		<g>
			<g>
				<path fill="#463D29" d="M134.606,147.054h-8.419v7.839h9.419v2.354h-12.257v-21.741h11.774v2.354h-8.936v6.871h8.419V147.054z"
					/>
				<path fill="#463D29" d="M138.092,153.828c1.258,0.806,3.064,1.419,5,1.419c2.871,0,4.548-1.516,4.548-3.71
					c0-1.999-1.162-3.193-4.097-4.29c-3.548-1.29-5.742-3.161-5.742-6.193c0-3.387,2.806-5.902,7.032-5.902
					c2.193,0,3.839,0.516,4.774,1.064l-0.774,2.29c-0.677-0.42-2.129-1.032-4.097-1.032c-2.968,0-4.097,1.774-4.097,3.258
					c0,2.032,1.323,3.032,4.322,4.193c3.677,1.419,5.516,3.193,5.516,6.387c0,3.354-2.452,6.29-7.581,6.29
					c-2.097,0-4.387-0.645-5.548-1.419L138.092,153.828z"/>
				<path fill="#463D29" d="M157.675,137.893h-6.613v-2.387h16.096v2.387h-6.645v19.354h-2.838V137.893z"/>
			</g>
			<g>
				<path fill="#463D29" d="M172.096,136.873l1.631,7.027l1.955-7.027h1.267l1.959,7.04l1.631-7.04h1.284l-2.272,8.649h-1.231
					l-1.996-7.172l-2.008,7.172h-1.23l-2.261-8.649H172.096z"/>
				<path fill="#463D29" d="M184.222,136.873h6.277v1.06h-5.134v2.626h4.746v1.001h-4.746v2.933h5.223v1.03h-6.365V136.873z"/>
				<path fill="#463D29" d="M193.33,136.873h3.74c1.02,0,1.745,0.302,2.175,0.906c0.253,0.357,0.379,0.77,0.379,1.236
					c0,0.546-0.155,0.993-0.465,1.343c-0.161,0.185-0.393,0.354-0.695,0.507c0.444,0.169,0.775,0.358,0.995,0.571
					c0.389,0.376,0.583,0.896,0.583,1.56c0,0.558-0.176,1.062-0.527,1.514c-0.525,0.675-1.36,1.013-2.506,1.013h-3.679V136.873z
					 M196.632,140.529c0.5,0,0.888-0.068,1.166-0.206c0.436-0.216,0.654-0.604,0.654-1.166c0-0.565-0.232-0.946-0.696-1.143
					c-0.262-0.109-0.651-0.164-1.167-0.164h-2.112v2.679H196.632z M197.028,144.521c0.725,0,1.242-0.208,1.551-0.624
					c0.194-0.263,0.291-0.581,0.291-0.954c0-0.628-0.283-1.056-0.85-1.283c-0.301-0.122-0.7-0.183-1.195-0.183h-2.348v3.044H197.028
					z"/>
				<path fill="#463D29" d="M178.054,148.12c0.847,0.451,1.366,1.242,1.556,2.373h-1.16c-0.139-0.632-0.425-1.093-0.859-1.381
					c-0.435-0.289-0.982-0.433-1.643-0.433c-0.784,0-1.445,0.3-1.981,0.9s-0.804,1.496-0.804,2.686c0,1.028,0.221,1.865,0.664,2.511
					c0.442,0.646,1.164,0.969,2.164,0.969c0.765,0,1.399-0.227,1.901-0.68c0.502-0.454,0.759-1.187,0.771-2.199h-2.708v-0.972h3.798
					v4.628h-0.754l-0.282-1.113c-0.39,0.437-0.736,0.738-1.037,0.907c-0.506,0.29-1.149,0.436-1.929,0.436
					c-1.008,0-1.875-0.331-2.601-0.995c-0.792-0.832-1.188-1.975-1.188-3.427c0-1.448,0.387-2.601,1.161-3.456
					c0.735-0.816,1.687-1.225,2.855-1.225C176.777,147.649,177.47,147.806,178.054,148.12z"/>
				<path fill="#463D29" d="M184.148,147.873v5.346c0,0.629,0.119,1.15,0.356,1.566c0.352,0.628,0.946,0.942,1.781,0.942
					c1.001,0,1.682-0.34,2.042-1.019c0.194-0.369,0.291-0.865,0.291-1.49v-5.346h1.184v4.857c0,1.063-0.144,1.882-0.432,2.455
					c-0.528,1.045-1.524,1.566-2.99,1.566s-2.46-0.521-2.984-1.566c-0.288-0.573-0.431-1.392-0.431-2.455v-4.857H184.148z"/>
				<path fill="#463D29" d="M192.129,147.873h1.367l2.486,4.156l2.487-4.156h1.378l-3.276,5.164v3.485h-1.172v-3.485
					L192.129,147.873z"/>
			</g>
			<g>
				<path fill="#463D29" d="M203.681,157.069v-1.896l2.422-2.353c5.829-5.548,8.497-8.497,8.497-11.938
					c0-2.317-1.088-4.459-4.494-4.459c-2.072,0-3.792,1.053-4.845,1.931l-0.983-2.177c1.545-1.299,3.827-2.317,6.425-2.317
					c4.916,0,6.987,3.37,6.987,6.636c0,4.213-3.054,7.619-7.865,12.254l-1.791,1.686v0.069h10.217v2.563H203.681z"/>
				<path fill="#463D29" d="M236.018,145.413c0,7.759-2.914,12.042-7.935,12.042c-4.459,0-7.514-4.178-7.583-11.727
					c0-7.689,3.335-11.867,7.97-11.867C233.244,133.861,236.018,138.145,236.018,145.413z M223.624,145.764
					c0,5.934,1.826,9.305,4.635,9.305c3.125,0,4.635-3.687,4.635-9.516c0-5.617-1.405-9.304-4.635-9.304
					C225.59,136.249,223.624,139.549,223.624,145.764z"/>
				<path fill="#463D29" d="M253.152,145.413c0,7.759-2.914,12.042-7.935,12.042c-4.459,0-7.514-4.178-7.583-11.727
					c0-7.689,3.335-11.867,7.97-11.867C250.378,133.861,253.152,138.145,253.152,145.413z M240.758,145.764
					c0,5.934,1.826,9.305,4.635,9.305c3.125,0,4.635-3.687,4.635-9.516c0-5.617-1.405-9.304-4.635-9.304
					C242.724,136.249,240.758,139.549,240.758,145.764z"/>
				<path fill="#463D29" d="M264.633,157.069v-6.25H254.03v-2.001l10.182-14.571h3.336v14.186h3.195v2.387h-3.195v6.25H264.633z
					 M264.633,148.433v-7.619c0-1.194,0.035-2.388,0.105-3.582h-0.105c-0.702,1.335-1.264,2.317-1.896,3.371l-5.583,7.76v0.07
					H264.633z"/>
			</g>
		</g>
	</g>
</g>
<g>
	<path fill="#463D29" d="M113.346,164.585l-1.125,8.468l0.031,0.009l3.631-7.746l2.122,0.611l-1.048,8.49l0.031,0.009l3.554-7.768
		l2.122,0.611l-5.162,10.401l-2.476-0.713l1.065-8.318l-0.031-0.009l-3.525,7.609l-2.475-0.714l1.165-11.553L113.346,164.585z"/>
	<path fill="#463D29" d="M130.413,171.091l-3.963-0.971l-0.64,2.611l3.73,0.913l-0.449,1.834l-3.729-0.913l-0.731,2.983l4.119,1.009
		l-0.449,1.834l-6.356-1.557l2.717-11.097l6.201,1.519L130.413,171.091z"/>
	<path fill="#463D29" d="M137.115,170.618c0.459,0.096,0.875,0.232,1.247,0.408c0.372,0.177,0.675,0.403,0.912,0.682
		c0.236,0.278,0.394,0.617,0.474,1.016c0.08,0.397,0.064,0.863-0.048,1.396c-0.127,0.605-0.377,1.096-0.75,1.47
		s-0.857,0.58-1.454,0.618l-0.006,0.031c0.609,0.215,1.048,0.586,1.32,1.111s0.328,1.164,0.17,1.915
		c-0.092,0.438-0.237,0.845-0.435,1.217c-0.198,0.373-0.467,0.679-0.806,0.918c-0.339,0.24-0.749,0.401-1.23,0.486
		c-0.481,0.084-1.05,0.058-1.708-0.08l-3.805-0.799l2.345-11.181L137.115,170.618z M134.476,180.004
		c0.542,0.114,1.006,0.086,1.391-0.084c0.384-0.17,0.645-0.578,0.78-1.226c0.068-0.324,0.08-0.603,0.036-0.835
		s-0.128-0.43-0.251-0.592c-0.125-0.162-0.285-0.292-0.483-0.388c-0.198-0.096-0.422-0.17-0.673-0.223l-0.971-0.204l-0.706,3.367
		L134.476,180.004z M135.275,175.022c0.626,0.131,1.106,0.115,1.44-0.05c0.334-0.164,0.557-0.513,0.669-1.045
		s0.06-0.936-0.155-1.209c-0.215-0.274-0.604-0.471-1.168-0.589l-0.814-0.171l-0.614,2.929L135.275,175.022z"/>
	<path fill="#463D29" d="M152.237,173.37c0.791,0.123,1.408,0.352,1.853,0.686c0.444,0.334,0.764,0.762,0.958,1.283
		s0.286,1.127,0.275,1.816c-0.011,0.689-0.081,1.45-0.211,2.282c-0.154,0.991-0.35,1.844-0.585,2.557
		c-0.236,0.714-0.538,1.284-0.907,1.713c-0.369,0.428-0.819,0.72-1.351,0.874c-0.532,0.154-1.177,0.173-1.936,0.055l-3.589-0.561
		l1.762-11.287L152.237,173.37z M150.294,182.913c0.4,0.062,0.732,0.044,0.997-0.056c0.264-0.099,0.491-0.296,0.683-0.59
		c0.191-0.294,0.352-0.695,0.479-1.204s0.252-1.148,0.372-1.918c0.1-0.643,0.167-1.21,0.201-1.701s0.009-0.908-0.072-1.25
		s-0.239-0.614-0.471-0.818c-0.233-0.203-0.565-0.339-0.997-0.406l-0.964-0.151l-1.239,7.937L150.294,182.913z"/>
	<path fill="#463D29" d="M164.807,176.982l-4.049-0.503l-0.331,2.668l3.811,0.473l-0.232,1.874l-3.811-0.474l-0.378,3.049
		l4.208,0.522l-0.232,1.874l-6.494-0.807l1.408-11.337l6.335,0.786L164.807,176.982z"/>
	<path fill="#463D29" d="M168.672,183.718c-0.025,0.266-0.027,0.51-0.005,0.731c0.021,0.222,0.084,0.412,0.187,0.571
		c0.103,0.16,0.248,0.292,0.437,0.396s0.431,0.169,0.729,0.197c0.351,0.033,0.677-0.051,0.98-0.253
		c0.303-0.201,0.477-0.541,0.522-1.02c0.024-0.255,0.011-0.479-0.041-0.671c-0.051-0.191-0.149-0.37-0.295-0.534
		c-0.145-0.163-0.342-0.318-0.591-0.465c-0.249-0.147-0.558-0.303-0.928-0.466c-0.494-0.218-0.917-0.445-1.27-0.683
		s-0.641-0.503-0.865-0.797c-0.224-0.295-0.377-0.625-0.46-0.992c-0.083-0.366-0.103-0.783-0.059-1.251
		c0.106-1.125,0.499-1.935,1.178-2.428s1.565-0.688,2.659-0.584c0.51,0.048,0.974,0.148,1.394,0.301
		c0.42,0.151,0.774,0.367,1.064,0.646s0.504,0.621,0.642,1.025c0.139,0.404,0.183,0.877,0.131,1.418l-0.03,0.319l-2.198-0.208
		c0.051-0.542-0.005-0.968-0.168-1.277c-0.164-0.311-0.468-0.486-0.914-0.529c-0.255-0.023-0.471-0.007-0.648,0.052
		s-0.322,0.144-0.434,0.256c-0.112,0.113-0.195,0.247-0.247,0.403c-0.052,0.155-0.086,0.318-0.102,0.488
		c-0.033,0.351,0.013,0.652,0.139,0.905s0.424,0.503,0.893,0.751l1.696,0.932c0.417,0.232,0.754,0.466,1.011,0.698
		c0.257,0.233,0.456,0.478,0.598,0.731c0.142,0.255,0.231,0.528,0.268,0.821s0.039,0.614,0.005,0.965
		c-0.114,1.2-0.544,2.04-1.291,2.521c-0.748,0.481-1.742,0.663-2.985,0.546c-1.296-0.123-2.195-0.492-2.7-1.107
		s-0.707-1.449-0.607-2.5l0.044-0.462l2.293,0.217L168.672,183.718z"/>
	<path fill="#463D29" d="M177.303,176.243l2.298,0.163l-0.809,11.396l-2.298-0.163L177.303,176.243z"/>
	<path fill="#463D29" d="M187.518,179.584c-0.038-0.227-0.105-0.436-0.203-0.627c-0.098-0.191-0.227-0.352-0.386-0.482
		c-0.159-0.13-0.356-0.201-0.59-0.212c-0.554-0.025-0.968,0.265-1.242,0.871c-0.274,0.606-0.445,1.623-0.512,3.051
		c-0.032,0.683-0.04,1.302-0.023,1.857s0.072,1.031,0.166,1.425c0.093,0.395,0.239,0.7,0.438,0.918
		c0.198,0.218,0.462,0.334,0.792,0.35c0.138,0.007,0.292-0.023,0.46-0.091c0.168-0.066,0.329-0.171,0.479-0.313
		s0.279-0.326,0.386-0.551c0.106-0.225,0.167-0.491,0.182-0.801l0.055-1.166l-1.519-0.071l0.08-1.694l3.724,0.175l-0.289,6.153
		l-1.694-0.08l0.049-1.055l-0.032-0.001c-0.298,0.435-0.646,0.735-1.043,0.904c-0.398,0.168-0.868,0.239-1.412,0.214
		c-0.703-0.033-1.271-0.183-1.701-0.448s-0.759-0.66-0.985-1.184c-0.227-0.523-0.365-1.162-0.415-1.918
		c-0.05-0.755-0.052-1.628-0.005-2.619c0.045-0.959,0.146-1.797,0.302-2.517c0.156-0.719,0.395-1.313,0.716-1.784
		c0.321-0.471,0.732-0.816,1.234-1.039c0.501-0.222,1.12-0.316,1.855-0.281c1.257,0.059,2.148,0.413,2.673,1.062
		c0.524,0.649,0.76,1.555,0.705,2.716l-2.206-0.104C187.569,180.029,187.555,179.81,187.518,179.584z"/>
	<path fill="#463D29" d="M198.105,184.959l0.032,0.001l0.124-7.823l2.112,0.033l-0.181,11.423l-2.624-0.042l-2.689-8.043
		l-0.032-0.001l-0.127,7.999l-2.112-0.033l0.181-11.423l2.656,0.042L198.105,184.959z"/>
	<path fill="#463D29" d="M209.627,178.968l-4.08,0.054l0.035,2.688l3.839-0.05l0.025,1.888l-3.84,0.05l0.04,3.071l4.24-0.055
		l0.024,1.888l-6.543,0.085l-0.149-11.423l6.384-0.083L209.627,178.968z"/>
	<path fill="#463D29" d="M216.437,176.837c0.959-0.04,1.715,0.171,2.269,0.634c0.553,0.463,0.85,1.189,0.892,2.181
		c0.032,0.767-0.096,1.399-0.385,1.897c-0.289,0.498-0.755,0.83-1.4,0.995l0.001,0.032c0.579,0.062,1.008,0.229,1.286,0.507
		c0.278,0.276,0.463,0.733,0.554,1.37c0.03,0.212,0.056,0.443,0.077,0.693s0.043,0.529,0.067,0.838
		c0.046,0.606,0.098,1.068,0.154,1.387c0.078,0.316,0.225,0.529,0.443,0.638l0.004,0.096l-2.494,0.104
		c-0.124-0.155-0.206-0.336-0.247-0.542s-0.071-0.422-0.091-0.645l-0.155-2.188c-0.04-0.447-0.167-0.794-0.38-1.041
		c-0.213-0.247-0.56-0.361-1.039-0.341l-1.231,0.052l0.202,4.827l-2.302,0.097l-0.478-11.414L216.437,176.837z M215.654,181.865
		c0.554-0.022,0.975-0.171,1.263-0.444c0.287-0.273,0.418-0.72,0.393-1.338c-0.044-1.055-0.6-1.561-1.665-1.516l-1.087,0.045
		l0.138,3.294L215.654,181.865z"/>
	<path fill="#463D29" d="M233.941,175.618l0.164,1.881l-4.065,0.354l0.233,2.678l3.825-0.333l0.164,1.881l-3.826,0.333l0.43,4.941
		l-2.295,0.2l-0.991-11.381L233.941,175.618z"/>
	<path fill="#463D29" d="M236.511,178.698c-0.005-0.735,0.097-1.378,0.306-1.929c0.209-0.551,0.551-1.002,1.025-1.353
		c0.475-0.351,1.141-0.576,1.999-0.677c0.858-0.101,1.559-0.035,2.101,0.197c0.542,0.231,0.979,0.592,1.311,1.079
		c0.331,0.487,0.579,1.089,0.743,1.806c0.165,0.717,0.297,1.504,0.397,2.361c0.102,0.869,0.155,1.668,0.16,2.398
		c0.005,0.729-0.098,1.37-0.307,1.92c-0.209,0.551-0.552,0.994-1.029,1.329c-0.476,0.335-1.144,0.553-2.001,0.653
		c-0.858,0.1-1.558,0.042-2.099-0.174c-0.541-0.216-0.977-0.567-1.308-1.055c-0.331-0.487-0.578-1.087-0.742-1.798
		c-0.164-0.712-0.296-1.501-0.398-2.37C236.569,180.229,236.516,179.434,236.511,178.698z M239.241,182.76
		c0.1,0.531,0.225,0.957,0.375,1.277c0.15,0.321,0.338,0.546,0.562,0.676c0.225,0.129,0.506,0.174,0.845,0.134
		c0.339-0.039,0.603-0.147,0.792-0.326c0.189-0.177,0.319-0.439,0.391-0.786c0.072-0.347,0.096-0.79,0.07-1.329
		c-0.026-0.539-0.083-1.19-0.172-1.953s-0.184-1.407-0.283-1.933s-0.224-0.951-0.375-1.277c-0.151-0.325-0.339-0.554-0.563-0.683
		c-0.225-0.13-0.506-0.175-0.845-0.135c-0.339,0.039-0.603,0.148-0.792,0.326s-0.319,0.442-0.39,0.795
		c-0.072,0.352-0.095,0.795-0.07,1.329s0.082,1.183,0.171,1.945S239.142,182.229,239.241,182.76z"/>
	<path fill="#463D29" d="M250.5,173.532c0.949-0.143,1.724-0.014,2.323,0.387c0.6,0.401,0.973,1.092,1.12,2.073
		c0.114,0.759,0.054,1.402-0.18,1.928c-0.234,0.526-0.662,0.906-1.285,1.14l0.005,0.031c0.582-0.001,1.026,0.121,1.333,0.366
		s0.539,0.68,0.697,1.303c0.053,0.208,0.103,0.436,0.15,0.682s0.101,0.521,0.157,0.826c0.111,0.598,0.212,1.052,0.301,1.362
		c0.111,0.307,0.28,0.502,0.509,0.587l0.015,0.095l-2.469,0.37c-0.14-0.141-0.24-0.312-0.303-0.513
		c-0.062-0.2-0.116-0.411-0.16-0.631l-0.389-2.158c-0.088-0.439-0.251-0.771-0.489-0.994c-0.238-0.224-0.595-0.299-1.069-0.228
		l-1.218,0.183l0.717,4.778l-2.278,0.342l-1.696-11.297L250.5,173.532z M250.26,178.616c0.549-0.083,0.951-0.275,1.208-0.578
		s0.339-0.76,0.247-1.372c-0.157-1.044-0.763-1.487-1.817-1.328l-1.076,0.161l0.489,3.26L250.26,178.616z"/>
	<path fill="#463D29" d="M263.681,171.229l0.868,4.281l2.635-0.534l-0.869-4.281l2.259-0.458l2.271,11.195l-2.258,0.459
		l-1.009-4.971l-2.635,0.534l1.009,4.971l-2.258,0.458l-2.271-11.195L263.681,171.229z"/>
	<path fill="#463D29" d="M271.51,169.564l2.245-0.519l2.573,11.13l-2.244,0.52L271.51,169.564z"/>
	<path fill="#463D29" d="M280.795,167.289c0.929-0.242,1.713-0.196,2.352,0.139c0.638,0.335,1.083,0.982,1.333,1.942
		c0.194,0.743,0.202,1.389,0.025,1.937s-0.562,0.971-1.157,1.269l0.009,0.031c0.578-0.062,1.033,0.012,1.364,0.223
		c0.33,0.212,0.607,0.619,0.831,1.222c0.074,0.201,0.148,0.422,0.222,0.662c0.074,0.239,0.155,0.508,0.243,0.805
		c0.174,0.583,0.322,1.023,0.444,1.322c0.143,0.294,0.332,0.471,0.568,0.53l0.024,0.093l-2.415,0.63
		c-0.154-0.125-0.273-0.284-0.356-0.478s-0.159-0.397-0.226-0.611l-0.615-2.104c-0.134-0.429-0.331-0.74-0.592-0.938
		c-0.261-0.196-0.623-0.234-1.088-0.112l-1.191,0.311l1.22,4.676l-2.229,0.581l-2.884-11.054L280.795,167.289z M281.095,172.369
		c0.537-0.14,0.917-0.373,1.14-0.702c0.224-0.328,0.257-0.791,0.101-1.39c-0.267-1.022-0.916-1.398-1.948-1.129l-1.053,0.274
		l0.832,3.189L281.095,172.369z"/>
	<path fill="#463D29" d="M293.08,165.742l-3.909,1.168l0.77,2.575l3.68-1.1l0.54,1.809l-3.679,1.1l0.88,2.943l4.062-1.214l0.54,1.81
		l-6.27,1.873l-3.271-10.945l6.117-1.828L293.08,165.742z"/>
</g>
</svg>
