<?xml version="1.0" encoding="utf-8"?>
<!-- Generator: Adobe Illustrator 15.1.0, SVG Export Plug-In . SVG Version: 6.00 Build 0)  -->
<!DOCTYPE svg PUBLIC "-//W3C//DTD SVG 1.1//EN" "http://www.w3.org/Graphics/SVG/1.1/DTD/svg11.dtd">
<svg version="1.1" id="Layer_1" xmlns="http://www.w3.org/2000/svg" xmlns:xlink="http://www.w3.org/1999/xlink" x="0px" y="0px"
	 width="71.497px" height="86.02px" viewBox="0 0 71.497 86.02" enable-background="new 0 0 71.497 86.02" xml:space="preserve">
<g>
	<g>
		<g id="eye_balls">
			<path fill="#473E2A" d="M34.987,45.751c0,0-7.138,0.396-3.569-9.649C31.417,36.102,35.979,35.309,34.987,45.751z"/>
			<path fill="#473E2A" d="M36.508,45.751c0,0,7.139,0.396,3.569-9.649C40.078,36.102,35.517,35.309,36.508,45.751z"/>
		</g>
	</g>
	<g>
		<g>
			<path fill="#473E2A" d="M35.803,47.646c-10.049,0-18.194,7.788-18.194,17.393c0,9.606,8.145,17.395,18.194,17.395
				s18.194-7.787,18.194-17.395C53.997,55.435,45.852,47.646,35.803,47.646z M33.194,72.487c0,0.789-0.591,1.429-1.319,1.429h-2.775
				c-0.727,0-1.317-0.64-1.317-1.429v-2.468c0-0.789,0.59-1.428,1.317-1.428h2.775c0.728,0,1.319,0.639,1.319,1.428V72.487z
				 M33.701,61.919c0,0.875-0.657,1.586-1.465,1.586H29.15c-0.809,0-1.465-0.711-1.465-1.586v-2.746
				c0-0.877,0.656-1.586,1.465-1.586h3.085c0.809,0,1.465,0.709,1.465,1.586V61.919z M43.604,72.487c0,0.789-0.59,1.429-1.317,1.429
				h-2.774c-0.728,0-1.318-0.64-1.318-1.429v-2.468c0-0.789,0.591-1.428,1.318-1.428h2.774c0.729,0,1.317,0.639,1.317,1.428V72.487z
				 M43.813,61.919c0,0.875-0.656,1.586-1.465,1.586h-3.084c-0.811,0-1.466-0.711-1.466-1.586v-2.746
				c0-0.877,0.655-1.586,1.466-1.586h3.084c0.809,0,1.465,0.709,1.465,1.586V61.919z M12.198,80.855
				C8.073,73.212,7.063,65.607,7.063,59.98c0-3.997,0.51-7.002,0.79-8.346c0.098-0.461,0.153-0.68,0.189-0.805
				c0.01-0.023,0-0.015,0.05-0.127c0.099-0.211,0.27-0.358,0.463-0.455c-0.796-0.697-3.614-2.812-6.173-0.431
				c-4.986,5.617-1.539,31.911,4.739,36.188c0,0,4.018,0.5,6.018-4.637c-0.022,0-0.045,0.008-0.068,0.008
				C12.718,81.376,12.377,81.187,12.198,80.855z M69.114,49.818c-2.504-2.332-5.256-0.354-6.119,0.385
				c0.24,0.053,0.359,0.16,0.434,0.215c0.092,0.082,0.127,0.136,0.159,0.178c0.056,0.082,0.074,0.124,0.093,0.162l0,0
				c0.057,0.125,0.088,0.258,0.09,0.387c0.006,0.029,0.014,0.068,0.021,0.111c0.027,0.152,0.068,0.373,0.12,0.652
				c0.101,0.557,0.231,1.35,0.364,2.33c0.267,1.963,0.531,4.676,0.531,7.803c-0.002,5.674-0.867,12.709-4.264,19.015
				c-0.18,0.332-0.521,0.521-0.874,0.521c-0.16,0-0.319-0.039-0.47-0.121c-0.483-0.258-0.662-0.859-0.402-1.343
				c3.174-5.872,4.03-12.597,4.027-18.071c-0.002-5.664-0.896-9.918-1.018-10.621c-0.01-0.072-0.02-0.057-0.024-0.252
				c0-0.057,0.001-0.127,0.028-0.246c0.03-0.098,0.08-0.262,0.26-0.446c-0.539,0.188-0.648,0.812-0.648,0.812
				c-1.847,0.768-1.785,0.127-1.785,0.127c0.187-0.574-1.046-3-1.046-3c0.062-4.338,4.247-0.767,4.247-0.767
				c1.6-6.765-1.662-10.53-1.662-10.53c0.309-1.275,3.938-0.765,3.938-0.765c0-1.979-2.275-4.147-2.275-4.147
				c0.246-2.234,5.723-1.404,5.723-1.404c-0.246-4.597-5.847-8.104-5.847-8.104c-0.308-2.553,4.739-0.958,4.739-0.958
				c0.615-1.851-6.708-3.957-6.708-3.957c0.185-1.531,4.433-1.723,3.323-2.681c-1.107-0.957-6.276-0.574-6.276-0.574
				c2.584-3.638,2.584-9.381-0.556-12.062c-3.139-2.681-10.893,4.212-10.893,4.212C39.143-1.174,35.82,0.072,35.82,0.072h-0.142
				c0,0-3.323-1.245-10.524,6.604c0,0-7.755-6.893-10.894-4.212c-3.139,2.681-3.139,8.424-0.554,12.062c0,0-5.17-0.382-6.278,0.574
				c-1.107,0.958,3.139,1.15,3.323,2.681c0,0-7.323,2.106-6.708,3.957c0,0,5.046-1.595,4.739,0.958c0,0-5.601,3.509-5.847,8.104
				c0,0,5.478-0.83,5.723,1.404c0,0-2.277,2.169-2.277,4.147c0,0,3.631-0.511,3.939,0.765c0,0-3.262,3.766-1.662,10.53
				c0,0,4.185-3.571,4.247,0.767c0,0-1.231,2.426-1.046,3c0,0,0.061,0.641-1.785-0.127c0,0-0.028-0.158-0.123-0.34
				c0.029,0.156,0.034,0.316-0.016,0.475c0,0,0,0.002,0,0.004c-0.006,0.021-0.016,0.057-0.028,0.107
				c-0.025,0.1-0.06,0.252-0.102,0.451c-0.084,0.398-0.197,0.989-0.31,1.742c-0.225,1.505-0.45,3.661-0.45,6.254
				c0,5.305,0.946,12.421,4.709,19.57c0.428-0.071,3.646-0.59,7.552-0.898c-3.566-3.484-5.791-8.285-5.79-13.578
				c-0.001-5.377,2.287-10.252,5.951-13.75c2.701-2.584,6.162-4.426,10.021-5.221c-0.819-2.119-9.064-12.14-9.359-18.628
				c0,0-0.91-10.294,2.908-10.344c3.817-0.05,9.166,6.709,10.606,12.229h0.271c1.439-5.52,6.789-12.278,10.605-12.229
				c3.817,0.05,2.908,10.344,2.908,10.344c-0.296,6.502-8.576,16.553-9.365,18.644c3.836,0.801,7.276,2.635,9.963,5.205
				c3.666,3.498,5.953,8.373,5.951,13.75c0.002,5.293-2.224,10.094-5.789,13.578c4.197,0.331,7.601,0.906,7.601,0.906
				c1.661,7.085,6.585,6.447,6.585,6.447C70.653,81.729,74.1,55.436,69.114,49.818z"/>
		</g>
	</g>
</g>
</svg>
