<?xml version="1.0" encoding="utf-8"?>
<!-- Generator: Adobe Illustrator 15.1.0, SVG Export Plug-In . SVG Version: 6.00 Build 0)  -->
<!DOCTYPE svg PUBLIC "-//W3C//DTD SVG 1.1//EN" "http://www.w3.org/Graphics/SVG/1.1/DTD/svg11.dtd">
<svg version="1.1" id="Layer_1" xmlns="http://www.w3.org/2000/svg" xmlns:xlink="http://www.w3.org/1999/xlink" x="0px" y="0px"
	 width="185.904px" height="24.653px" viewBox="0 0 185.904 24.653" enable-background="new 0 0 185.904 24.653"
	 xml:space="preserve">
<g>
	<path fill="#473E2A" d="M3.286,0.651L2.161,9.12l0.031,0.009l3.631-7.746l2.122,0.61l-1.048,8.49l0.031,0.01l3.554-7.768
		l2.122,0.61L7.442,13.737l-2.476-0.713l1.065-8.318L6,4.696l-3.525,7.609L0,11.592L1.165,0.039L3.286,0.651z"/>
	<path fill="#473E2A" d="M20.353,7.157L16.39,6.187l-0.64,2.611l3.73,0.913l-0.449,1.834l-3.729-0.913l-0.731,2.982l4.119,1.01
		l-0.449,1.834l-6.356-1.557l2.717-11.098l6.201,1.52L20.353,7.157z"/>
	<path fill="#473E2A" d="M27.055,6.685c0.459,0.096,0.875,0.232,1.247,0.408c0.372,0.178,0.675,0.403,0.912,0.682
		c0.236,0.278,0.394,0.617,0.474,1.017c0.08,0.397,0.064,0.862-0.048,1.396c-0.127,0.605-0.377,1.096-0.75,1.471
		c-0.373,0.373-0.857,0.58-1.454,0.617l-0.006,0.031c0.609,0.215,1.048,0.586,1.32,1.111s0.328,1.164,0.17,1.915
		c-0.092,0.438-0.237,0.845-0.435,1.217c-0.198,0.373-0.467,0.679-0.806,0.918c-0.339,0.24-0.749,0.401-1.23,0.485
		c-0.481,0.085-1.05,0.059-1.708-0.079l-3.805-0.8l2.345-11.18L27.055,6.685z M24.416,16.071c0.542,0.113,1.006,0.086,1.391-0.084
		c0.384-0.17,0.645-0.578,0.78-1.227c0.068-0.324,0.08-0.604,0.036-0.835s-0.128-0.43-0.251-0.592
		c-0.125-0.162-0.285-0.292-0.483-0.388c-0.198-0.096-0.422-0.17-0.673-0.224l-0.971-0.204l-0.706,3.367L24.416,16.071z
		 M25.215,11.089c0.626,0.131,1.106,0.115,1.44-0.05c0.334-0.164,0.557-0.513,0.669-1.046c0.112-0.531,0.06-0.936-0.155-1.209
		s-0.604-0.471-1.168-0.588l-0.814-0.172l-0.614,2.93L25.215,11.089z"/>
	<path fill="#473E2A" d="M42.177,9.437c0.791,0.123,1.408,0.353,1.853,0.687c0.444,0.334,0.764,0.762,0.958,1.282
		c0.194,0.521,0.286,1.127,0.275,1.816c-0.011,0.689-0.081,1.45-0.211,2.282c-0.154,0.991-0.35,1.844-0.585,2.558
		c-0.236,0.713-0.538,1.283-0.907,1.713c-0.369,0.428-0.819,0.719-1.351,0.873c-0.532,0.154-1.177,0.174-1.936,0.055l-3.589-0.561
		l1.762-11.287L42.177,9.437z M40.234,18.979c0.4,0.062,0.732,0.045,0.997-0.056c0.264-0.099,0.491-0.296,0.683-0.59
		c0.191-0.294,0.352-0.695,0.479-1.204s0.252-1.148,0.372-1.918c0.1-0.643,0.167-1.21,0.201-1.701
		c0.034-0.49,0.009-0.908-0.072-1.25s-0.239-0.613-0.471-0.818c-0.233-0.203-0.565-0.338-0.997-0.405l-0.964-0.151l-1.239,7.938
		L40.234,18.979z"/>
	<path fill="#473E2A" d="M54.747,13.049l-4.049-0.503l-0.331,2.668l3.811,0.473l-0.232,1.875l-3.811-0.475l-0.378,3.049l4.208,0.521
		l-0.232,1.875l-6.494-0.807l1.408-11.338l6.335,0.786L54.747,13.049z"/>
	<path fill="#473E2A" d="M58.612,19.784c-0.025,0.267-0.027,0.511-0.005,0.732c0.021,0.221,0.084,0.411,0.187,0.57
		c0.103,0.16,0.248,0.292,0.437,0.396c0.189,0.104,0.431,0.168,0.729,0.196c0.351,0.033,0.677-0.051,0.98-0.253
		c0.303-0.201,0.477-0.541,0.522-1.02c0.024-0.256,0.011-0.479-0.041-0.672c-0.051-0.19-0.149-0.369-0.295-0.533
		c-0.145-0.163-0.342-0.318-0.591-0.465c-0.249-0.147-0.558-0.303-0.928-0.467c-0.494-0.218-0.917-0.445-1.27-0.683
		s-0.641-0.503-0.865-0.797c-0.224-0.295-0.377-0.625-0.46-0.992c-0.083-0.366-0.103-0.782-0.059-1.251
		c0.106-1.125,0.499-1.936,1.178-2.428c0.679-0.493,1.565-0.688,2.659-0.584c0.51,0.048,0.974,0.148,1.394,0.301
		c0.42,0.15,0.774,0.367,1.064,0.646c0.29,0.278,0.504,0.621,0.642,1.024c0.139,0.404,0.183,0.877,0.131,1.418l-0.03,0.319
		l-2.198-0.208c0.051-0.542-0.005-0.968-0.168-1.277c-0.164-0.312-0.468-0.485-0.914-0.528c-0.255-0.023-0.471-0.008-0.648,0.051
		c-0.177,0.06-0.322,0.145-0.434,0.257s-0.195,0.247-0.247,0.403c-0.052,0.154-0.086,0.317-0.102,0.487
		c-0.033,0.351,0.013,0.652,0.139,0.905s0.424,0.503,0.893,0.751l1.696,0.933c0.417,0.231,0.754,0.465,1.011,0.697
		c0.257,0.232,0.456,0.479,0.598,0.73c0.142,0.256,0.231,0.529,0.268,0.822c0.037,0.293,0.039,0.613,0.005,0.965
		c-0.114,1.199-0.544,2.039-1.291,2.521c-0.748,0.481-1.742,0.663-2.985,0.546c-1.296-0.123-2.195-0.492-2.7-1.107
		c-0.505-0.614-0.707-1.449-0.607-2.5l0.044-0.461l2.293,0.217L58.612,19.784z"/>
	<path fill="#473E2A" d="M67.243,12.31l2.298,0.163l-0.809,11.396l-2.298-0.162L67.243,12.31z"/>
	<path fill="#473E2A" d="M77.458,15.651c-0.038-0.228-0.105-0.437-0.203-0.627c-0.098-0.191-0.227-0.353-0.386-0.482
		c-0.159-0.13-0.356-0.201-0.59-0.212c-0.554-0.025-0.968,0.265-1.242,0.87c-0.274,0.607-0.445,1.623-0.512,3.052
		c-0.032,0.683-0.04,1.302-0.023,1.856c0.017,0.556,0.072,1.031,0.166,1.426c0.093,0.395,0.239,0.699,0.438,0.918
		c0.198,0.218,0.462,0.334,0.792,0.35c0.138,0.008,0.292-0.023,0.46-0.091c0.168-0.065,0.329-0.171,0.479-0.313
		c0.15-0.142,0.279-0.326,0.386-0.551c0.106-0.225,0.167-0.49,0.182-0.801l0.055-1.166l-1.519-0.07l0.08-1.695l3.724,0.176
		l-0.289,6.152l-1.694-0.08l0.049-1.055h-0.032c-0.298,0.434-0.646,0.734-1.043,0.903c-0.398,0.168-0.868,0.239-1.412,0.214
		c-0.703-0.033-1.271-0.184-1.701-0.447c-0.43-0.266-0.759-0.66-0.985-1.185c-0.227-0.522-0.365-1.162-0.415-1.918
		c-0.05-0.755-0.052-1.628-0.005-2.619c0.045-0.959,0.146-1.797,0.302-2.517c0.156-0.719,0.395-1.313,0.716-1.784
		c0.321-0.472,0.732-0.815,1.234-1.039c0.501-0.222,1.12-0.315,1.855-0.281c1.257,0.06,2.148,0.413,2.673,1.062
		c0.524,0.649,0.76,1.556,0.705,2.717l-2.206-0.104C77.509,16.096,77.495,15.877,77.458,15.651z"/>
	<path fill="#473E2A" d="M88.045,21.026h0.032l0.124-7.822l2.112,0.033l-0.181,11.422l-2.624-0.041l-2.689-8.043l-0.032-0.002
		l-0.127,8l-2.112-0.033l0.181-11.424l2.656,0.043L88.045,21.026z"/>
	<path fill="#473E2A" d="M99.566,15.034l-4.08,0.055l0.035,2.688l3.84-0.049l0.024,1.887l-3.84,0.051l0.04,3.07l4.24-0.055
		l0.023,1.889l-6.543,0.084l-0.148-11.422l6.384-0.084L99.566,15.034z"/>
	<path fill="#473E2A" d="M106.377,12.903c0.959-0.039,1.715,0.172,2.27,0.635c0.553,0.463,0.85,1.189,0.892,2.181
		c0.032,0.767-0.097,1.399-0.386,1.897s-0.754,0.83-1.399,0.994l0.001,0.033c0.579,0.062,1.008,0.229,1.286,0.506
		c0.278,0.276,0.463,0.733,0.554,1.371c0.03,0.211,0.057,0.442,0.077,0.692s0.043,0.528,0.067,0.838
		c0.046,0.606,0.098,1.067,0.154,1.388c0.077,0.315,0.225,0.528,0.442,0.637l0.004,0.097l-2.494,0.104
		c-0.124-0.155-0.206-0.336-0.247-0.543c-0.041-0.205-0.07-0.422-0.091-0.645l-0.155-2.188c-0.039-0.447-0.166-0.795-0.379-1.041
		c-0.214-0.248-0.561-0.361-1.039-0.342l-1.231,0.053l0.202,4.826l-2.303,0.098l-0.478-11.414L106.377,12.903z M105.594,17.933
		c0.555-0.023,0.975-0.172,1.264-0.445c0.287-0.272,0.418-0.719,0.393-1.338c-0.044-1.055-0.6-1.561-1.665-1.516l-1.087,0.045
		l0.138,3.295L105.594,17.933z"/>
	<path fill="#473E2A" d="M123.881,11.685l0.164,1.881l-4.064,0.354l0.232,2.678l3.825-0.333l0.164,1.881l-3.826,0.334l0.431,4.94
		l-2.296,0.2l-0.991-11.381L123.881,11.685z"/>
	<path fill="#473E2A" d="M126.451,14.765c-0.006-0.734,0.097-1.378,0.306-1.929c0.209-0.552,0.552-1.002,1.024-1.353
		c0.476-0.352,1.142-0.576,2-0.678c0.857-0.101,1.559-0.035,2.101,0.197c0.542,0.23,0.979,0.592,1.312,1.079
		c0.33,0.487,0.578,1.089,0.742,1.806c0.166,0.717,0.297,1.504,0.397,2.361c0.103,0.869,0.155,1.668,0.16,2.398
		c0.005,0.729-0.099,1.369-0.308,1.92s-0.552,0.994-1.029,1.328c-0.475,0.336-1.144,0.553-2,0.653
		c-0.858,0.101-1.559,0.042-2.1-0.174s-0.977-0.567-1.308-1.056c-0.331-0.486-0.578-1.086-0.742-1.797
		c-0.164-0.713-0.296-1.502-0.397-2.371C126.509,16.296,126.456,15.501,126.451,14.765z M129.182,18.827
		c0.1,0.531,0.225,0.957,0.375,1.277c0.149,0.32,0.338,0.545,0.562,0.676c0.225,0.129,0.506,0.174,0.845,0.134
		c0.339-0.039,0.604-0.147,0.792-0.326c0.188-0.177,0.319-0.438,0.392-0.786c0.071-0.347,0.096-0.79,0.069-1.329
		c-0.026-0.538-0.083-1.19-0.172-1.952c-0.089-0.764-0.185-1.408-0.283-1.934s-0.224-0.951-0.375-1.277
		c-0.151-0.324-0.339-0.554-0.563-0.683c-0.225-0.13-0.506-0.175-0.844-0.136c-0.34,0.039-0.604,0.148-0.793,0.326
		c-0.188,0.179-0.318,0.442-0.39,0.795s-0.095,0.795-0.069,1.33c0.024,0.533,0.082,1.183,0.17,1.944
		C128.986,17.649,129.082,18.296,129.182,18.827z"/>
	<path fill="#473E2A" d="M140.439,9.599c0.949-0.143,1.725-0.014,2.324,0.387c0.6,0.401,0.973,1.092,1.119,2.074
		c0.114,0.758,0.055,1.401-0.18,1.928c-0.234,0.525-0.662,0.906-1.285,1.14l0.005,0.03c0.582,0,1.026,0.121,1.333,0.367
		c0.307,0.244,0.539,0.68,0.697,1.303c0.053,0.207,0.104,0.436,0.15,0.682s0.101,0.521,0.156,0.826
		c0.111,0.598,0.213,1.052,0.301,1.361c0.111,0.308,0.28,0.502,0.51,0.588l0.015,0.095l-2.47,0.37
		c-0.139-0.141-0.239-0.312-0.303-0.514c-0.062-0.199-0.115-0.41-0.16-0.631l-0.389-2.158c-0.088-0.438-0.251-0.771-0.488-0.994
		c-0.238-0.223-0.596-0.299-1.069-0.227l-1.218,0.182l0.717,4.779l-2.278,0.342l-1.696-11.297L140.439,9.599z M140.199,14.683
		c0.55-0.082,0.951-0.275,1.209-0.578c0.257-0.303,0.339-0.76,0.246-1.371c-0.156-1.045-0.762-1.487-1.816-1.328l-1.076,0.16
		l0.489,3.26L140.199,14.683z"/>
	<path fill="#473E2A" d="M153.621,7.296l0.867,4.281l2.636-0.534l-0.869-4.281l2.259-0.458l2.271,11.195l-2.258,0.459l-1.01-4.971
		l-2.635,0.533l1.01,4.971l-2.259,0.459l-2.271-11.195L153.621,7.296z"/>
	<path fill="#473E2A" d="M161.449,5.631l2.246-0.519l2.572,11.129l-2.244,0.521L161.449,5.631z"/>
	<path fill="#473E2A" d="M170.734,3.356c0.93-0.242,1.713-0.197,2.353,0.139c0.638,0.335,1.083,0.982,1.333,1.941
		c0.193,0.743,0.202,1.389,0.025,1.938c-0.178,0.548-0.562,0.971-1.157,1.27l0.009,0.03c0.578-0.062,1.033,0.013,1.364,0.224
		c0.329,0.211,0.606,0.619,0.831,1.222c0.074,0.2,0.148,0.422,0.222,0.661c0.074,0.24,0.155,0.509,0.243,0.806
		c0.174,0.583,0.322,1.022,0.443,1.321c0.144,0.295,0.332,0.472,0.568,0.531l0.023,0.092l-2.414,0.631
		c-0.154-0.125-0.273-0.284-0.355-0.479c-0.084-0.193-0.16-0.396-0.227-0.611l-0.615-2.104c-0.134-0.429-0.331-0.74-0.592-0.938
		c-0.262-0.196-0.623-0.234-1.088-0.112l-1.191,0.312l1.221,4.676l-2.229,0.58l-2.884-11.053L170.734,3.356z M171.035,8.437
		c0.537-0.141,0.917-0.373,1.14-0.703c0.224-0.328,0.257-0.791,0.101-1.39c-0.267-1.022-0.916-1.397-1.947-1.129l-1.053,0.274
		l0.832,3.188L171.035,8.437z"/>
	<path fill="#473E2A" d="M183.02,1.81l-3.908,1.168l0.77,2.574l3.68-1.1l0.541,1.809l-3.68,1.1l0.88,2.943l4.062-1.214l0.541,1.81
		l-6.271,1.873l-3.271-10.945L182.48,0L183.02,1.81z"/>
</g>
</svg>
