<?xml version="1.0" encoding="utf-8"?>
<!-- Generator: Adobe Illustrator 15.1.0, SVG Export Plug-In . SVG Version: 6.00 Build 0)  -->
<!DOCTYPE svg PUBLIC "-//W3C//DTD SVG 1.1//EN" "http://www.w3.org/Graphics/SVG/1.1/DTD/svg11.dtd">
<svg version="1.1" id="Layer_1" xmlns="http://www.w3.org/2000/svg" xmlns:xlink="http://www.w3.org/1999/xlink" x="0px" y="0px"
	 width="386.179px" height="66.38px" viewBox="0 0 386.179 66.38" enable-background="new 0 0 386.179 66.38" xml:space="preserve">
<g>
	<g>
		<path fill="#473E2A" d="M8.25,27.75c0.433,0.834,1.008,1.509,1.725,2.024c0.716,0.518,1.558,0.899,2.525,1.149
			c0.966,0.25,1.966,0.375,3,0.375c0.7,0,1.45-0.058,2.25-0.175c0.8-0.116,1.55-0.342,2.25-0.676c0.7-0.332,1.283-0.791,1.75-1.375
			c0.466-0.582,0.7-1.324,0.7-2.225c0-0.967-0.309-1.75-0.925-2.351c-0.617-0.601-1.425-1.101-2.425-1.5s-2.133-0.749-3.399-1.05
			c-1.268-0.301-2.55-0.633-3.85-1c-1.333-0.332-2.633-0.741-3.9-1.226c-1.267-0.481-2.4-1.106-3.4-1.875
			c-1-0.767-1.808-1.725-2.425-2.875c-0.617-1.149-0.925-2.541-0.925-4.175c0-1.832,0.392-3.425,1.175-4.773
			c0.783-1.351,1.808-2.476,3.075-3.375c1.266-0.899,2.7-1.566,4.3-2C11.351,0.216,12.951,0,14.55,0
			c1.867,0,3.658,0.208,5.375,0.625c1.716,0.417,3.241,1.092,4.575,2.024c1.333,0.934,2.391,2.125,3.175,3.575
			c0.783,1.449,1.175,3.208,1.175,5.274h-7.6c-0.067-1.066-0.292-1.95-0.675-2.649c-0.383-0.699-0.892-1.25-1.525-1.65
			c-0.634-0.399-1.358-0.683-2.175-0.85c-0.817-0.167-1.708-0.25-2.675-0.25c-0.634,0-1.267,0.066-1.9,0.199
			c-0.634,0.134-1.208,0.367-1.725,0.7c-0.517,0.334-0.942,0.75-1.275,1.25s-0.5,1.134-0.5,1.899c0,0.699,0.133,1.268,0.4,1.699
			c0.267,0.434,0.792,0.834,1.575,1.2c0.783,0.366,1.866,0.733,3.25,1.101c1.383,0.366,3.191,0.834,5.425,1.399
			c0.667,0.134,1.591,0.375,2.775,0.726c1.183,0.35,2.358,0.908,3.525,1.676c1.167,0.767,2.175,1.791,3.025,3.074
			c0.85,1.282,1.275,2.924,1.275,4.924c0,1.635-0.317,3.15-0.95,4.551c-0.633,1.4-1.575,2.607-2.825,3.625
			c-1.25,1.017-2.8,1.809-4.65,2.375c-1.85,0.566-3.992,0.85-6.424,0.85c-1.967,0-3.875-0.242-5.725-0.725
			c-1.85-0.483-3.483-1.241-4.899-2.275c-1.417-1.031-2.542-2.35-3.375-3.949c-0.833-1.601-1.233-3.5-1.2-5.699h7.6
			C7.6,25.899,7.816,26.917,8.25,27.75z"/>
		<path fill="#473E2A" d="M30.848,0.851h8.799l8.35,14.099l8.3-14.099h8.75L51.797,22.85v13.699h-7.85V22.649L30.848,0.851z"/>
		<path fill="#473E2A" d="M75.845,0.851L90.744,24.8h0.1V0.851h7.35v35.698h-7.85L75.495,12.651h-0.1v23.897h-7.35V0.851H75.845z"/>
		<path fill="#473E2A" d="M135.792,0.851c1.7,0,3.25,0.15,4.65,0.45c1.4,0.3,2.6,0.792,3.6,1.475c1,0.684,1.775,1.592,2.325,2.725
			c0.55,1.134,0.825,2.533,0.825,4.199c0,1.801-0.409,3.301-1.225,4.5c-0.817,1.199-2.025,2.185-3.625,2.949
			c2.2,0.635,3.841,1.742,4.925,3.325c1.083,1.584,1.625,3.492,1.625,5.726c0,1.8-0.35,3.357-1.05,4.675s-1.642,2.394-2.825,3.225
			c-1.184,0.834-2.534,1.45-4.05,1.851c-1.517,0.399-3.075,0.601-4.675,0.601h-17.299v-35.7H135.792z M134.792,15.3
			c1.4,0,2.55-0.333,3.45-1c0.9-0.666,1.35-1.75,1.35-3.25c0-0.833-0.15-1.516-0.45-2.05c-0.3-0.532-0.7-0.95-1.2-1.25
			s-1.075-0.509-1.725-0.625s-1.325-0.175-2.025-0.175h-7.35v8.35H134.792z M135.242,30.45c0.766,0,1.5-0.075,2.2-0.226
			c0.7-0.149,1.316-0.399,1.85-0.75c0.533-0.351,0.958-0.825,1.275-1.426c0.316-0.601,0.475-1.366,0.475-2.3
			c0-1.832-0.517-3.141-1.55-3.926c-1.033-0.781-2.4-1.174-4.1-1.174h-8.55v9.799h8.4V30.45z"/>
		<path fill="#473E2A" d="M150.341,0.851h8.799l8.35,14.099l8.3-14.099h8.75L171.29,22.85v13.699h-7.85V22.649L150.341,0.851z"/>
		<path fill="#473E2A" d="M216.838,0.851c2.3,0,4.44,0.367,6.425,1.1c1.982,0.733,3.7,1.833,5.148,3.3
			c1.451,1.468,2.584,3.3,3.4,5.5c0.816,2.199,1.225,4.783,1.225,7.75c0,2.6-0.332,4.999-1,7.199
			c-0.666,2.199-1.674,4.1-3.024,5.699c-1.351,1.601-3.032,2.858-5.05,3.774c-2.018,0.917-4.393,1.375-7.125,1.375h-15.398V0.851
			H216.838z M216.288,29.95c1.132,0,2.232-0.184,3.3-0.551c1.065-0.365,2.017-0.976,2.851-1.824c0.832-0.851,1.5-1.959,2-3.325
			s0.75-3.032,0.75-4.999c0-1.801-0.176-3.426-0.525-4.875c-0.35-1.45-0.926-2.691-1.725-3.725
			c-0.801-1.035-1.859-1.826-3.176-2.375c-1.316-0.551-2.941-0.826-4.875-0.826h-5.6v22.5H216.288z"/>
		<path fill="#473E2A" d="M265.185,0.851V7.45h-18.849V15.1h17.299V21.2h-17.299v8.75h19.249v6.6h-27.1V0.851H265.185z"/>
		<path fill="#473E2A" d="M276.884,27.75c0.434,0.834,1.008,1.509,1.725,2.024c0.717,0.518,1.559,0.899,2.525,1.149
			c0.966,0.25,1.966,0.375,3,0.375c0.7,0,1.45-0.058,2.25-0.175c0.8-0.116,1.55-0.342,2.25-0.676c0.7-0.332,1.283-0.791,1.75-1.375
			c0.466-0.582,0.7-1.324,0.7-2.225c0-0.967-0.31-1.75-0.925-2.351c-0.617-0.601-1.426-1.101-2.426-1.5s-2.133-0.749-3.398-1.05
			c-1.268-0.301-2.551-0.633-3.85-1c-1.334-0.332-2.633-0.741-3.9-1.226c-1.268-0.481-2.4-1.106-3.4-1.875
			c-1-0.767-1.808-1.725-2.425-2.875c-0.616-1.149-0.925-2.541-0.925-4.175c0-1.832,0.393-3.425,1.175-4.773
			c0.783-1.351,1.808-2.476,3.075-3.375c1.266-0.899,2.699-1.566,4.3-2c1.601-0.433,3.2-0.649,4.8-0.649
			c1.866,0,3.657,0.208,5.375,0.625c1.715,0.417,3.24,1.092,4.574,2.024c1.333,0.934,2.391,2.125,3.176,3.575
			c0.782,1.449,1.174,3.208,1.174,5.274h-7.6c-0.066-1.066-0.292-1.95-0.675-2.649c-0.384-0.699-0.892-1.25-1.524-1.65
			c-0.635-0.399-1.359-0.683-2.176-0.85s-1.708-0.25-2.675-0.25c-0.634,0-1.267,0.066-1.899,0.199
			c-0.635,0.134-1.209,0.367-1.726,0.7c-0.517,0.334-0.942,0.75-1.274,1.25c-0.334,0.5-0.5,1.134-0.5,1.899
			c0,0.699,0.133,1.268,0.399,1.699c0.267,0.434,0.792,0.834,1.575,1.2s1.865,0.733,3.25,1.101c1.383,0.366,3.191,0.834,5.425,1.399
			c0.667,0.134,1.591,0.375,2.774,0.726c1.184,0.35,2.358,0.908,3.525,1.676c1.167,0.767,2.176,1.791,3.025,3.074
			c0.85,1.282,1.275,2.924,1.275,4.924c0,1.635-0.318,3.15-0.951,4.551s-1.574,2.607-2.824,3.625
			c-1.25,1.017-2.801,1.809-4.65,2.375s-3.992,0.85-6.424,0.85c-1.967,0-3.875-0.242-5.725-0.725
			c-1.851-0.483-3.483-1.241-4.899-2.275c-1.417-1.031-2.542-2.35-3.375-3.949c-0.833-1.601-1.233-3.5-1.2-5.699h7.6
			C276.235,25.899,276.45,26.917,276.884,27.75z"/>
		<path fill="#473E2A" d="M311.182,0.851v35.698h-7.85V0.851H311.182z"/>
		<path fill="#473E2A" d="M339.231,36.274c-1.701,0.717-3.418,1.074-5.15,1.074c-2.733,0-5.191-0.475-7.375-1.425
			s-4.024-2.258-5.524-3.925c-1.5-1.666-2.649-3.625-3.45-5.875c-0.8-2.25-1.199-4.676-1.199-7.274c0-2.666,0.399-5.141,1.199-7.425
			c0.801-2.281,1.95-4.273,3.45-5.975s3.341-3.032,5.524-4c2.183-0.966,4.642-1.449,7.375-1.449c1.834,0,3.607,0.274,5.324,0.824
			c1.717,0.551,3.268,1.358,4.65,2.425s2.525,2.384,3.426,3.95c0.898,1.566,1.449,3.367,1.648,5.398h-7.499
			c-0.47-2-1.367-3.499-2.701-4.499s-2.948-1.5-4.85-1.5c-1.767,0-3.267,0.343-4.5,1.024c-1.233,0.684-2.233,1.601-3,2.75
			c-0.767,1.15-1.325,2.459-1.675,3.925c-0.351,1.467-0.525,2.983-0.525,4.55c0,1.5,0.175,2.959,0.525,4.375
			c0.35,1.417,0.908,2.692,1.675,3.824c0.767,1.134,1.767,2.043,3,2.727s2.733,1.023,4.5,1.023c2.6,0,4.606-0.657,6.024-1.975
			c1.416-1.316,2.24-3.226,2.476-5.726h-7.901v-5.85h15v19.299h-5l-0.799-4.05C342.481,34.299,340.93,35.558,339.231,36.274z"/>
		<path fill="#473E2A" d="M363.829,0.851L378.728,24.8h0.102V0.851h7.35v35.698h-7.85l-14.85-23.897h-0.101v23.897h-7.351V0.851
			H363.829z"/>
	</g>
	<g>
		<g>
			<path fill="#473E2A" d="M126.926,55.832h-8.419v7.839h9.419v2.354h-12.257v-21.74h11.774v2.354h-8.936v6.871h8.419V55.832z"/>
			<path fill="#473E2A" d="M130.412,62.606c1.258,0.805,3.064,1.418,5,1.418c2.871,0,4.548-1.516,4.548-3.709
				c0-2-1.162-3.193-4.097-4.291c-3.548-1.289-5.742-3.16-5.742-6.192c0-3.388,2.806-5.902,7.032-5.902
				c2.193,0,3.839,0.517,4.774,1.063l-0.774,2.291c-0.677-0.42-2.129-1.032-4.097-1.032c-2.968,0-4.097,1.774-4.097,3.258
				c0,2.032,1.323,3.032,4.322,4.192c3.677,1.42,5.516,3.193,5.516,6.388c0,3.354-2.452,6.29-7.581,6.29
				c-2.097,0-4.387-0.645-5.548-1.419L130.412,62.606z"/>
			<path fill="#473E2A" d="M149.995,46.671h-6.613v-2.387h16.096v2.387h-6.645v19.354h-2.838V46.671L149.995,46.671z"/>
		</g>
		<g>
			<path fill="#473E2A" d="M164.416,45.651l1.631,7.026l1.955-7.026h1.267l1.959,7.039l1.631-7.039h1.284l-2.272,8.648h-1.231
				l-1.996-7.172l-2.008,7.172h-1.23l-2.261-8.648H164.416z"/>
			<path fill="#473E2A" d="M176.542,45.651h6.277v1.06h-5.134v2.626h4.746v1.001h-4.746v2.933h5.223v1.03h-6.365L176.542,45.651
				L176.542,45.651z"/>
			<path fill="#473E2A" d="M185.65,45.651h3.74c1.02,0,1.745,0.301,2.175,0.905c0.253,0.357,0.379,0.771,0.379,1.236
				c0,0.546-0.155,0.993-0.465,1.343c-0.161,0.186-0.393,0.354-0.695,0.508c0.444,0.168,0.775,0.357,0.995,0.57
				c0.389,0.376,0.583,0.896,0.583,1.561c0,0.558-0.176,1.062-0.527,1.514c-0.525,0.675-1.36,1.013-2.506,1.013h-3.679V45.651z
				 M188.952,49.307c0.5,0,0.888-0.067,1.166-0.206c0.436-0.216,0.654-0.604,0.654-1.166c0-0.564-0.232-0.945-0.696-1.143
				c-0.262-0.109-0.651-0.164-1.167-0.164h-2.112v2.679H188.952z M189.348,53.299c0.725,0,1.242-0.208,1.551-0.624
				c0.194-0.264,0.291-0.581,0.291-0.954c0-0.628-0.283-1.056-0.85-1.282c-0.301-0.123-0.7-0.184-1.195-0.184h-2.348v3.044H189.348
				L189.348,53.299z"/>
			<path fill="#473E2A" d="M170.374,56.897c0.847,0.451,1.366,1.242,1.556,2.373h-1.16c-0.139-0.632-0.425-1.093-0.859-1.381
				c-0.435-0.289-0.982-0.433-1.643-0.433c-0.784,0-1.445,0.3-1.981,0.899c-0.536,0.601-0.804,1.496-0.804,2.687
				c0,1.028,0.221,1.864,0.664,2.511c0.442,0.646,1.164,0.969,2.164,0.969c0.765,0,1.399-0.227,1.901-0.68
				c0.502-0.454,0.759-1.188,0.771-2.199h-2.708v-0.972h3.798V65.3h-0.754l-0.282-1.113c-0.39,0.438-0.736,0.738-1.037,0.907
				c-0.506,0.29-1.149,0.437-1.929,0.437c-1.008,0-1.875-0.332-2.601-0.996c-0.792-0.832-1.188-1.975-1.188-3.426
				c0-1.449,0.387-2.602,1.161-3.457c0.735-0.815,1.687-1.225,2.855-1.225C169.097,56.427,169.79,56.584,170.374,56.897z"/>
			<path fill="#473E2A" d="M176.468,56.651v5.346c0,0.629,0.119,1.15,0.356,1.566c0.352,0.627,0.946,0.941,1.781,0.941
				c1.001,0,1.682-0.34,2.042-1.02c0.194-0.369,0.291-0.865,0.291-1.49v-5.346h1.184v4.857c0,1.062-0.144,1.882-0.432,2.455
				c-0.528,1.045-1.524,1.566-2.99,1.566c-1.466,0-2.46-0.521-2.984-1.566c-0.288-0.573-0.431-1.393-0.431-2.455v-4.857h1.183
				V56.651z"/>
			<path fill="#473E2A" d="M184.449,56.651h1.367l2.486,4.155l2.487-4.155h1.378l-3.276,5.164V65.3h-1.172v-3.484L184.449,56.651z"
				/>
		</g>
		<g>
			<path fill="#473E2A" d="M196.001,65.847V63.95l2.422-2.353c5.829-5.548,8.497-8.497,8.497-11.938
				c0-2.316-1.088-4.459-4.494-4.459c-2.071,0-3.792,1.054-4.845,1.932l-0.983-2.178c1.545-1.299,3.827-2.316,6.425-2.316
				c4.916,0,6.987,3.37,6.987,6.637c0,4.213-3.054,7.619-7.864,12.254l-1.791,1.686v0.068h10.217v2.563L196.001,65.847
				L196.001,65.847z"/>
			<path fill="#473E2A" d="M228.338,54.19c0,7.76-2.914,12.043-7.935,12.043c-4.459,0-7.515-4.179-7.584-11.728
				c0-7.688,3.336-11.867,7.971-11.867C225.563,42.639,228.338,46.923,228.338,54.19z M215.944,54.542
				c0,5.934,1.826,9.305,4.635,9.305c3.125,0,4.635-3.688,4.635-9.516c0-5.617-1.405-9.305-4.635-9.305
				C217.909,45.026,215.944,48.327,215.944,54.542z"/>
			<path fill="#473E2A" d="M245.472,54.19c0,7.76-2.914,12.043-7.936,12.043c-4.459,0-7.514-4.179-7.582-11.728
				c0-7.688,3.335-11.867,7.97-11.867C242.698,42.639,245.472,46.923,245.472,54.19z M233.077,54.542
				c0,5.934,1.826,9.305,4.636,9.305c3.125,0,4.635-3.688,4.635-9.516c0-5.617-1.405-9.305-4.635-9.305
				C235.044,45.026,233.077,48.327,233.077,54.542z"/>
			<path fill="#473E2A" d="M256.952,65.847v-6.25H246.35v-2.001l10.183-14.571h3.336v14.187h3.195v2.387h-3.195v6.25L256.952,65.847
				L256.952,65.847z M256.952,57.211v-7.619c0-1.194,0.035-2.388,0.105-3.582h-0.105c-0.701,1.335-1.264,2.317-1.896,3.371
				l-5.583,7.76v0.07H256.952z"/>
		</g>
	</g>
</g>
</svg>
